<mxfile host="app.diagrams.net" modified="2023-08-08T03:26:13.313Z" agent="Mozilla/5.0 (Windows NT 10.0; Win64; x64) AppleWebKit/537.36 (KHTML, like Gecko) Chrome/115.0.0.0 Safari/537.36" etag="O3Hqx4ajZUE1iD7EPtqq" version="21.6.6" type="onedrive">
  <diagram name="Page-1" id="R5ecprR-YXO9Gjul0s2y">
    <mxGraphModel dx="1750" dy="903" grid="0" gridSize="10" guides="1" tooltips="1" connect="1" arrows="1" fold="1" page="1" pageScale="1" pageWidth="1700" pageHeight="1100" math="0" shadow="0">
      <root>
        <mxCell id="0" />
        <mxCell id="1" parent="0" />
        <mxCell id="e2_BesBo26gISKYNJ_wk-2" value="" style="shape=image;verticalLabelPosition=bottom;labelBackgroundColor=default;verticalAlign=top;aspect=fixed;imageAspect=0;image=data:image/png,iVBORw0KGgoAAAANSUhEUgAABK4AAAJtCAYAAAAfNjhfAAAAAXNSR0IArs4c6QAAAARnQU1BAACxjwv8YQUAAAAJcEhZcwAADsMAAA7DAcdvqGQAAI/RSURBVHhe7d0JvFXj/sfxX/NcGqREEyljRVQahFSqGyVzRdEgbsoQIv5KpiZSSTJWIiq6oiIRLi4ionDRIAqFJs3n3/dpP+euVnufs0/DaZ1zPm+v9dprPWvcu+Psfb77eX4rV8pOBgAAAAAAAERM7tgjAAAAAAAAECkEVwAAAAAAAIgkgisAAAAAAABEEsEVAAAAAAAAIongCgAAAAAAAJFEcAUAAAAAAIBIIrgCAAAAAABAJBFcAQAAAAAAIJIIrgAAAAAAABBJBFcAAAAAAACIJIIrAAAAAAAARBLBFQAAAAAAACKJ4AoAAAAAAACRRHAFAAAAAACASCK4AgAAAAAAQCQRXAEAAAAAACCSCK4AAAAAAAAQSQRXAAAAAAAAiCSCKwAAAAAAAEQSwRUAAAAAAAAiieAKAAAAAAAAkURwBQAAAAAAgEgiuAIAAAAAAEAkEVwBAAAAAAAgkgiuAAAAAAAAEEkEVwAAAAAAAIgkgisAAAAAAABEEsEVAAAAAAAAIongCgAAAAAAAJFEcAUAAAAAAIBIIrgCAAAAAABAJBFcAQAAAAAAIJIIrgAAAAAAABBJBFcAAAAAAACIJIIrAAAAAAAARBLBFQAAAAAAACKJ4AoAAAAAAACRRHAFAAAAAACASCK4AgAAAAAAQCQRXAEAAAAAACCSCK4AAAAAAAAQSQRXAAAAAAAAiCSCKwAAAAAAAEQSwRUAAAAAAAAiieAKAAAAAAAAkURwBQAAAAAAgEgiuAIAAAAAAEAkEVwBAAAAAAAgkgiuAAAAAAAAEEkEVwAAAAAAAIgkgisAAAAAAABEEsEVAAAAAAAAIongCgAAAAAAAJFEcAUAAAAAAIBIIrgCAAAAAABAJBFcAQAAAAAAIJIIrgAAAAAAABBJBFcAAAAAAACIJIIrAAAAAAAARBLBFQAAAAAAACKJ4AoAAAAAAACRRHAFAAAAAACASCK4AgAAAAAAQCQRXAEAAAAAACCSCK4AAAAAAAAQSQRXAAAAAAAAiCSCKwAAAAAAAEQSwRUAAAAAAAAiieAKAAAAAAAAkURwBQAAAAAAgEgiuAIAAAAAAEAkEVwBAAAAAAAgkgiuAAAAAAAAEEkEVwAAAAAAAIgkgisAAAAAAABEEsEVAAAAAAAAIongCgAAAAAAAJFEcAUAAAAAAIBIIrgCAAAAAABAJBFcAQAAAAAAIJIIrgAAAAAAABBJBFcAAAAAAACIJIIrAAAAAAAARBLBFQAAAAAAACKJ4AoAAAAAAACRRHAFAAAAAACASCK4AgAAAAAAQCQRXAEAAAAAACCSCK4AAAAAAAAQSQRXAAAAAAAAiCSCKwAAAAAAAEQSwRUAAAAAAAAiieAKAAAAAAAAkURwBQAAAAAAgEgiuAIAAAAAAEAkEVwBAAAAAAAgkgiuAAAAAAAAEEkEVwAAAAAAAIgkgisAAAAAAABEEsEVAAAAAAAAIongCgAAAAAAAJFEcAUAAAAAAIBIIrgCAAAAAABAJBFcAQAAAAAAIJIIrgAAAAAAABBJBFcAAAAAAACIJIIrAAAAAAAARBLBFQAAAAAAACKJ4AoAgP1k4sSJlitXrn2aatWqZd98803siHv69ddf7YknnrBLL73UatSokbrfySefbJ07d7YZM2bY2rVrY1snpnPoXMFzJ5oqV65srVq1sgcffNDtl5KSEjvK3tPzeO655/b5eYRpnxdffNEdQ8fyx9U5dC6dU+dOxsCBA1P3z+j0/vvv299//209evSIuz4jk46hY8W7pk6dOtm6devcumTo327YsGG7HUM/t8n46quv7LjjjnP7FC9e3ObMmRNbk9i2bdvsgQceSD3Xtddeaxs2bIitTZu20/baTz+D77zzTmwNAADISQiuAADIAn777Te79dZb7eijj7arr77ann/++d0Crs8++8yefvppa926tZ100kk2fPjwpAOC9CxdutRee+01u+WWW+zUU0+1O++8c6+PvXnzZhs1apQde+yxdvnll6f5PE477TSbNGmSCz/So+vRc65SpYpddNFF7hg6lqdz6Fw6p859++23u9c0q/vwww/txx9/jC2lb/Xq1fbGG2/ElpKnwGvWrFm2aNEit6ywbPr06e7fMy158+a1bt262YUXXuiWR48ebdOmTUs3/NS/+ciRI932on+vxo0bu3kAAJCz5Nr5wWHfvzYFAAAuREjUK2TNmjU2fvx4++WXX6xBgwbWokULy5cvX2zt/xQoUMAuueQSK1euXKxlV0+X7t27u148cuKJJ9pVV11lZ5xxhh155JG2Y8cO+/77710god5YCpqkbdu2LsypVKmSWw5SkHPxxRfbggUL0rweUUjx3nvv7fbc7r//frvxxhtdMJEshRFDhw51AZxXu3Zta9q0qZUuXdotL1u2zPXk8WFWsWLFrH///tanT5+E51qxYoVbr55Wouer1+ecc86xo446ynLnzm3Lly9316/X58svv3Tb6XmPGDHC9cyKR72bFNLJddddZ0cccYSbT0a7du3cdUyZMsU9p3gWLlxoEyZMcPMdOnSwE044wc2HVaxY0S644ALLnz//btfkjRkzxv18JEM/Q+eee+5uvbR0DQr00vLHH3+411ShU8uWLV2QqQBQr/nxxx8f2yoxBV7q8aafN+2nEFEBayL6t7riiivcz3LPnj1db78iRYrE1gIAgBxFwRUAADiwFi9enFKzZk19WZTSvXv3lI0bN8bWpO3rr79OqVu3rtuvVKlSKcOGDUtZv359bO2e1q5dm9KvX7+UYsWKuX3OO++8lJUrV8bW/k9Gr2f79u0pr776akqlSpXcPnr8+OOPY2uT8+abb6ZeV7NmzVI+/fTTlB07dsTW/s/WrVtTpk+fvtu53nvvvdja3em56TlqOx37lltuSfn1119ja/e0adOmlJEjR7rXUvvotdVrHM+AAQPcNpoSnX9fTJgwIfX4mk+Gv6by5cunVK9e3c137NjR/bunZ9u2bSn9+/dP3T8j5/b/dtWqVUt5/vnnU3929POYDP07T5w4MfXfv23btgn/nYI/82eeeWbKTz/9FFsDAAByIoYKAgAQUarXpJ5NH330keu9o54xvXv3TrPnSbFixezuu+92Q6vklVdescGDB6c7pCs96rWknja9evVyy+oJ8+6777r5ZGzZssXVrVJPH/W40TX5GlRh6ln1j3/8wx5++GH3fHQu9VzSMYLUg0s9pvQctZ16l91zzz126KGHxrbYk3q0qQfPI4884vbRa3vXXXe5HkVZSdmyZV3PPEl2uKBqe33wwQfueatuVrKC/3Y1a9a0Jk2auN5+op+BZF47/TurB6B6UYl6bj355JN7DAP1Qz79z7z+bSpUqBBbCwAAciKCKwAAIurNN9+0Z5991s1rKFizZs3iBj1hCn40tK1r165uWQXJFQTsK51bgUX58uXdsobz+aLh6dF2Gq4nGlqmUCI9qmmkYYSielW///67m/fmz59vTz31lJu/7LLL3JTM0EU9D9XB6tu3r1vWcDcNfctqVAOsbt269t1337lAKj1ff/21+znQa6rC/MnSUMx///vfbl7BlUIzH1zpZ1T/DskoVKiQGyZ65plnumUFk/PmzXPz4utaPf74426ZulYAAEAIrgAAiCD1PPnXv/7l5hVOqHdNnjx53HIy1CtLNazUu0Z1tdRjaV97XYmOW6ZMmdhS8lQ/65BDDnHzf/755x69p+IpWbKkq4FVvXp1F5Zs2rQptsZs+/bt9uqrr7rnpiCtS5cuLhhJlgIu9QBS7y/R65PVel2pvtnpp5/u5lW7Kli3Kkyvl2qHaZuGDRum1hRLxltvveUCL73OPjw95ZRT3Ll1vGSKtHvqPaVeVAou9W+nHnIKxkTnGTRokJtXrzgFkckEtQAAIHsjuAIAIIJUbN0XY1fvmGCx9mRpKJ7vsfTJJ5/YypUr3fy+UK8pX9xc11SwYEE3nx6FSj4kUi+dcePGJRV2qDD74sWL7YUXXrCqVavGWs1WrVqVOlRRvYCC65KlOzSqgLtouN0PP/zg5rMKFWvXsD1Jb7igXi/1ylL4pOAqWX/99ZfNnDnTzauYvUJEUaH6s88+283rpgD//e9/3XwydP5rr73Wzc+dO9fdOVC9wVR0XkGYemT169ePYuwAAMAhuAIAIIKWLFnihoCJwoKM9CbyihcvbjVq1HDzCpvUw2VfqKeU7ozoJapRFY+2U90q9R4TBRMKjR599FH3XMO1jtKj5+LvPKhATM81o1Tv6rjjjnPzOl5GwpeoUGinnk/6WVGPqkQUXL799tu7hU/J0GvsA1TdebJEiRJuXr3/mjdv7nr06Y6Bs2bN0g1/3Lr0aF8Nfe3UqZNb1nBP3VWRulYAACAegisAACIoGDIdfvjhsbmMUUDga0mpJ4t6cWWUwggNoVMo0rFjx9Tg6sILL7RGjRq5+WRVq1bN9a5ReCLqMaUhYVWqVLHDDjvM1Z167LHHXBCS3lDCNWvWpL5GKsau3kd7I9hT69tvv43N7Um9hBS+pTcNHDgwtkfmUM8nX29KdajUQypMr6VCK1EPPB8+pSc4HFPhYL169WJrdlHo53v0vf766xnq0aegUfWuFGTq+KphJtS1AgAAYQRXAABEkO4A5ymc2FtFixaNzSWmsKhw4cJxgxjdTbBUqVIuoFCIIQobdOdC1aDKKPXSUu8cBVgnnnhirHVXEKUi6brbnQIRX7dqwYIFcXvyBF+fihUrxuYyTs87K1M46Yudq2dUvF5jvri6gsP69evHWtP3008/pfbiUu84Da0M0r+/el2Jhn8mUyA+SL0B1dPKU88xHU8/dwAAAB7BFQAASIqGhXXu3Nmef/751HpVe0O1i6655hp3NzrVZRozZozrwaWAzFOQpSFk6tV1xx13uB5jB5Pu0nj//fenOymYy2y6S6NqXannUvAufZ56M2kYnnq6HXXUUbHW9H366aepdxNUPSsNrQxTTzT/s6CbCeimAslS7bIJEybElnb1GNNdNDM6bBQAAGRvBFcAAERQsKfUxo0bY3MZp+Fe6VGgoSFu8YIYTVOnTrX//Oc/Lhh58sknrXLlyrE9943u7Kdjqd7R5MmTXQFxBVkKL1q3bu22UWB17733umFlwVBEIZq3fv362FzGJfP6iO7qeMstt6Q7tWrVKrZH5tEwSz9sMzxcUAXw33nnHTevkCnZgufBu1qqt92pp57q5sOCBe7Vk+6rr75y8+nR8FPVsvJ1rVSrSx588EF76aWX3DwAAIAQXAEAEEHBulZ7e7c7DbEL7psocDrhhBPsxhtvjBvEaGrbtq0LLg70Xd58kKVaWtOnT3c9fpo1a+bWqbaWhqN5ZcuWTQ2vli5dmnQAFabC8N7e3JkwCjRcUHWu9HqEhwvq+Sm4UjCUkbsJqjeUgijR666fx/AwUk26q+SIESPcdgo2NZw0vX8L9agaO3asGxoqqmv1yCOPuABLQeVDDz3k6pwBAAAIwRUAABGk4VeqSSRff/216zmTUWvXrk3tAaP6QftSKyuzKRTRsLvBgwe710KBhgIYX7Rdda1OOeUUN6+QRc81o3Sszz//3M2rppa/A2NWpLpgvtB5cLig7iaoOmEqrJ5sLTAFnnqtdayMmj17ti1btiy2FN9bb71lgwYNcvO6s+DFF1/sQrU+ffq4NvXCGj58eIaGHQIAgOyL4AoAgAhSLSJ/9z2FCMGeQcn65ptvXA8cqVOnjpUrV87NZ7atW7e64X4qDK5C4j///HNsTfoqVKiQGrhoyKTvzRMcHvfhhx/al19+6eYzwhctFwU7WbXHlagHmi+87ocLKvjxvdTUc61QoUJuPj26O6DuEigqlv7aa6/Z3Llz05xUs0wUOimYSkQ9qe68804XRCpo0xBQ3WFQQWXnzp1dkCWPP/64K+C/tz3pAABA9kFwBQBABGlY3vnnn++Gf6nHjIZVZaRotUKLcePGuV4zOkabNm3iFtfODPny5XOhiQImDf9buHBhbE36duzYETe80PA4PScNL9NzVJHvjPTQ0Ws5ceJEF7SIalPtzV0So0Kvh0ImP1xQoaXCTj0/BUS1a9eObZk+/fsEA68WLVq44u9pTVdeeaXrtSYzZsxwNazC1CtONdN0TbrO3r1771bkXwGWgixdr4waNcree+89Nw8AAHIugisAACJKRbFVFFxUtFoFzDWMKz0KZUaOHOl6rcgVV1zhhgoeTOo9pmBDPW3Uk0a9ndKj5/rGG2+khkuqsxXsNVSrVi27+uqr3byeq55zMuGejqvXUq+pqIaXQrCsrnr16u51VpCn8EpBoXo4KQgK1kxLi4akqk6VaKiqfgbVGyo9urOhgjNR6KU7Rgbp3+XRRx91hffln//8p7Vv397NB2m4Zq9evVywpdpld999d1I/KwAAIPsiuAIAIKLU60p1fxQ8KPDp0aOHDR06NM2eRVp33333pdYQOu+88+yOO+5IepjYgaLi4Jdddpmbf+WVV1xYpJ45f//9t2sL0/N47LHHXMCh565A5uyzz46t3UXF3Lt27eqeo6i3zm233Wa//fabW45HwczTTz+dely9tnqtDj300NgWWVfp0qVTh5dOmTLFnn/+eTev1y3Z3nYq7K6wUHQsDVlNhn5WFXKJXlcV1w/WZQvWtdK/l8Ip/fuFKSTTz4bCVtEwRPXSSvRzAgAAsj+CKwAAIkxDqXRHPQ3ZUiBw8803u1pGDz/8sCssvnr1ajdpCN4DDzzgCpb7GkIa/qbtVA/qYFNwomu/8MIL3fLHH39srVu3dgXj//GPf9jAgQPd9etRy6prpbpJa9asccMBFXrEuyuinpt6W+lOhDJkyBDXM0vHUY8jhVh6fdTzSD1+VBerS5cu7rgKrTQcLThcLStT6KOfE/VsU48r9XzSMD7VN0uWhub5O/opiMrInSTVq88P81P45e9uGKxrpX9L/Ryk9TOpkFUhpOqhyTPPPGPTpk1LqrchAADIfgiuAACIOA3Zmjp1qg0bNsxKlSrlCpGrPpDqFpUpU8ZNCif0x75qGykc0LYvvPCCm48KhRVPPPGE9e/f3z0PUYCkoWkKNnT9etSy2kXh1ssvv2xnnHGGW45HvaUUXqlmlYbLaYiZjqOAT0XL9frorns9e/Z0gZnO3a9fP/vXv/6VemfC7EI/Kyo07+k1SDa4VF2qWbNmuXkFUBkdXqqwUcGZKKzSsVQk3te1kttvvz2p46oov3oK+uGl99xzz14V4AcAAFkfwRUAAFmAHzb47bffuoBGta8U0ngKsVQgW6HPF1984bbNSG+ZzKLaRQMGDHDBxqRJk9w1B4MW0bKG/Kn3j3raqJZVetSjS0MR1fNMr4GOGyxIrtdKr5leO507uwwPDDvkkEOsYcOGbl6vtYYJqnB7MlSXyhdlV7ik8CgjdB4Fjb5Iu+5GOHjw4NS6VgoO9W+UTM0sady4sV1//fVuXv9m//d//5fmMFAAAJA95Uqh3zUAAAAAAAAiiB5XAAAAAAAAiCSCKwAAAAAAAEQSwRUAAAAAAAAiieAKAAAAAAAAkURwBQAAAAAAgEgiuAIAAAAAAEAkEVwBAAAAAAAgkgiuAAAAAAAAEEkEVwAAAAAAAIgkgisAAAAAAABEEsEVAAAAAAAAIongCgAAAAAAAJFEcAUAAAAAAIBIIrgCAAAAAABAJBFcAQAAAAAAIJIIrgAAAAAAABBJBFcAAAAAAACIJIIrAAAAAAAARBLBFQAAAAAAACKJ4AoAAAAAAACRRHAFAAAAAACASCK4AgAAAAAAQCQRXAEAAAAAACCSCK4AAAAAAAAQSQRXAAAAAAAAiCSCKwAAAAAAAEQSwRUAAAAAAAAiieAKAAAAAAAAkURwBQAAAAAAgEgiuAIAAAAAAEAkEVwBAAAAAAAgkgiuAAAAAAAAEEkEVwAAAAAAZIINGzbY3XffbZUrV7ZcuXLZM888Y0uWLLGRI0fa33//Hdsq5/rtt9/s4Ycftj/++CPWsn/t2LHD3nzzTZs+fXqsJWt4//33rVatWvbNN9/EWnIWgisAAAAAADLBp59+akOHDrWuXbva3LlzrUmTJjZ+/HhbuHBhbIucbfbs2fb666+7gOlAUCA2ZMgQW7duXawFWQHBFQAAAAAAmWD58uVWtWpVa9++vQutKlWqFFsDIBGCKwAAAAAAEkhJSbG33nrLzj33XCtevLgb5te9e3c3xC9Iw9zuv/9+q1GjhhsG2LRpU5s6dapt27bNDQPs0aOHdejQwRYsWOC2Oeecc+zKK6+0O++80x577DErXLiwTZw40VavXm0tWrRwwwiff/55O+mkk9x5u3Tp4oKvlStX2jXXXGOlS5d267SNzuF9+eWXdvXVV6cOR9S5dI41a9a49Z988olbd99999n27dtdm56jhuipXcPSMkLDHx999FGrV6+eO58ex4wZs9vQRz0vPSc9t6Bg+8CBA93rM2vWLCtTpoxb9q/bgAED3L9B48aN3Wtx0UUX2fz58911i3/NdLygYLuG2Z199tnu+DpPRobe+evo37+/DRs2zL327dq1sxUrVrj1+lno1q2ba9ekfyv9OwTpGHpdFFjqddLz0M+Unpd/HqJ/pzvuuMP9W2jSz0bw3/err76y4447bo/nKtpWx/z9999jLdkDwRUAAAAAAAm8++67LoioWbOmTZkyxQ01+/bbb91wv19++cVts2rVKresEOmWW25xQ96OPfZYF0xpaGDu3Lld8HHXXXdZtWrVbMKECa7WVc+ePd1+559/vgtUGjZs6I4nCjkUXil0UqikoOaf//ynXXXVVa6nls6l7RWYvPPOO26fL774wi6++GLbuHGjjRo1yl2Hjv3QQw/Zvffea5s3b7batWvbtdde60KOzz77zO2nIYzDhw+3Pn362Omnn+7akqHQqm/fvvbAAw+486p+VMuWLe3222+3m266ya1Plnqh6fWpW7euq0GlZU8B4K233mqXX365TZo0ybUpOPr3v//t5pNx+OGHu7BOx9d5VFdMbRkxduxY9++g0KhTp04uYFPQp3Bs/fr19uyzz7pp06ZN9o9//CP130XB0z333OP+Hc477zw3TFT/PtpOP1t6/UVDGfVz8tJLL9ltt93mtnnvvfds3Lhxbr2ox54CPP1cBsNBDX/UtSgQVXiWraQAAAAAAIC4BgwYkHL11VenbNiwIdaSkjJ//vyUevXqpbz33nspO3bsSBk6dGhKzZo1U77++uvYFikp27dvTxkzZkzKsccem7Jw4ULXNmHCBLfd4sWL3bLo+N27d0/ZuHGjW/79999TmjdvntKqVauUX375xbWJjqU/4cePH+/OKStWrEhp0qRJyr333uuWR44cmXLhhRemrFq1yi3Ltm3bUvr37++OqWPLr7/+mtK2bduUTp06pSxdutTto/m//vrLrU/WlClTUsqXL58yZ86cWEuKu7bXXnstpWzZsilvvvmma9PzDp7fC7eHl/Wa6LWpVKlSyttvv+3aRNep673yyitT1q9fn/qaaf+gcHui7dLjr6NRo0Ypy5cvj7WmuHPrGm677baUTZs2xVpTUrZu3ZrSr1+/1Ov78ccfU1q3br3HefVzoZ8P367XM/xctX/Xrl13+7nRduGfowULFri2jz76KNaSfdDjCgAAAACABNQr54033nA9nPzd7tRr6YMPPrAGDRrY2rVr3bx6Gh1zzDFuvaiXVbNmzdyQMPWayag6derYYYcdFlsyK1q0qJ144omuXUPN5JBDDrGjjz46dSiZelJNnjzZypYt65YlT548Vr16ddfbSpMceuihduONN7rrvuKKK1wPMvVo0rUma8uWLe55aUjkqaeeGmu11OGCem3mzJmTOhxxX6hH02mnnRZbMnedem01HM/3essMGqIX7M2koZvqLaV/B72Wb7/9tpv0uuTLl8/1aPvpp5/ckL9//etfrsdYULly5axixYqut5ZeJw3jVG+qk08+ObaFWZEiRezCCy+MLe2in7+CBQu67T291uqNpR592U0upVexeQAHmbqNLl26NLYEAAAA4EDREDoNZ1MglBbVrlKo8+STT7rlM844w9q2beuGslWoUMHVUVIgoTbVvgry6xTiqD6ShpgNHjzYXnjhBRcmiWo5qVaShuoVKlRoj328ePtqqJiG9+k6/Lb6E//PP/+0//73v/bdd9+5EOW1115z4UpwXwUlDz74oPXr18+eeuopF2D5QCwZ/tylSpVyz0EBmefXiZ6Xhvrp7ol6DsHgR8vB9vByvOfnaVichkrq+amOl16zjh077hYO+dfSt4eXkxV+Pvp3En8NiRQrVswN11SQJwr79G+tfxuFWlqnwEk1vPSzmOj1VDh23XXX2dNPP50aQmqIph51PTqu6pppmKe/zuyE4AqIEH1LM3r06Ax90wEAAAAgY9Q7Zt68eS4MSS+4Ev3ZrJ4zr776qqu/pMBCAYNqUJ1wwgkuBIlCcKWg6oYbbnDXqeurWbOmC020neoqBfdVTzHVzFJNJtVreuSRRzL0d4g/98EMrlSIXOGPehnFC6QyK7hSeKZ/r0TUI+7xxx93RddVfF09pvTvoEe9Nq1atUozuFLtsl69erm6ZP7fTz+Hqlumml86pp6PXrdTTjnFrc9WFFwBiIadv3jd+GcAAAAAB86rr76a0rdv35R169bFWjJmyZIlrgZVnz59XL2o9u3buzpHqicV9MMPP6TUrVs35ZlnnnHLqmWUbI0rtQfF29fXXtK2qrHUq1cvt+8333yTWgdLVB8ruK/WjR071tVXeuKJJ9yjloP7pGfz5s3u+Xfs2DFl7dq1sdZd1qxZ42po3XXXXe6YuvbTTz/dvW5Bqs2l6/U1rbRdcNk/P51H5wsKHtO/ZsOGDYut3eW7775LOeWUU9y2sq81roL/TqK6UtWqVXOvb1pUd0q1wLRdcH9fo0z/fvrZ0c9QvNdz9uzZe/zb+31V70rPO95+2QU1rgAAAAAAiEN3xVNPGPVi8vWhRMPuNIl6KdWvX98Nx1OtKG/Hjh2uN9DKlSvtpJNOirUeOKqT9M0337geVuqB5If9adigegYFqTaUeg51797d3flQj1pWe7Ly58/vehvpToIff/xxrHVX77QPP/zQnVO1r3QdGjL3448/ursvenpdwteVyFtvvWXff/99bMlcD6OXX37Z1ftSnai8efO6cyxZsiT138lfh79j34Fw1FFHuZ5Wql+l5+Oph5XuIti6dWvXm0494XQHQg0z9b21dH0LFixIvT71sNKx1BMw+HrqZ1DPNUz1zxo1amSvvPKK6/GlY+s1yI4IrgAAAAAAiEOFsRWOaAhW7969bcaMGW66+eabXVhwwQUXWIECBdwwLRXgvvTSS129KBVzv/76691211xzjRtOmIiGKiqsUDixL/VudRydR0P+HnjgAVckXEMZ27Rp4wIcT0MEhw4d6upCXXbZZa6IvK5bYZfatT5ZzZs3d0Mku3Tp4oIv1WvSMLcOHTq4GmBNmjRx2ym4U+HwW265xV566SU3de7c2UqWLOnWewpeNCxOhfAXLVoUazUX8KgGl56PhshpXoXRe/To4V5/hYcK0fTaDxo0yL3+ug7VhDrzzDNjR7HUgEuvtcKwdevWxdbsHf18KPhbuHChe501FFM/HxqCqX8Hvb4q7q/hfXpd9fOg69f1aVig6lYFh6rq9dKwwZ49e7rXU9tpXuVkwhR0KazSNgrGfB2t7IjgCgAAAACABC666CIbN26c682jgEeTejGpNtHpp5/utlHvF9UwuuSSS1xopDveKXhRkKG79ykwSUS9cnyI9Nxzz8VaM04BjgqtKygbM2aMC1IUACksUoCja1bY44MThSa6u6DoLoS6I+G0adPcevUGSoaCGxV41zn0XHWHQfU8GzZsmA0ZMsStF4V6I0eOdOdTyKV1Cp9UUDxIPdf0etx2221u+02bNrn2rl27uiDw0UcfdYFX+fLl3XM79thj3Xr16urWrZvr5TR58mT376CaZKNGjdrtTo8KuBQyqmeaivN/9dVXsTV7T+GRelwpNFTIpJ8P/awo7NR16NpUd0rF/VUrSzfkUrCl12bWrFlumx9++MH1rPKvp/4NVc9K6/TvOmHChNjZdqe7HB5//PHu+HqNsyuKswMR4ouzZ+dfOgAAAMDBpl4xGSnOjoMjUVF07PL777+7QvPq4ZaRYvNZDT2uAAAAAAAAspj58+e7IYi+5192RXAFAAAAAAAcDXHT8Lb0phYtWtjq1atje2U9unY9h3jPLTzpNYkS9Ri8/fbbrVevXm5oZcWKFWNrsieCKwAAAAAA4LRr184NQUtvmjRp0h7F1bMSXbueQ7znFp70mkTJsmXLXN011VLTHSFVqD07o8YVECHUuAIAAAAOPGpcAVkHPa4AAAAAAAAQSQRXAAAAAAAAiCSCKwAAAAAAAEQSwRUAAAAAAAAiieAKAAAAAAAAkURwBQAAAAAAgEgiuAIAAAAAAEAk5UrZKTYP4CBr2bKljR492ipXrhxrAQAAALAvXn31VXvllVcsV65cljt3bjetWrXKfvvtNzvxxBMtf/78rk38ek3B7f2U3jZajteW1nrfHpwPbxNeH27zy2ntpymt6/fziY4Rb9vgcqL1wL4iuAIihOAKAAAA2L9GjRplO3bscJP+/NXjt99+a0uXLrX69etbvnz5UtuD2wSX47WFl4Nt4fWaJLic3jF8W3A5fAxNwW2SOUZwGz0eaOEgy09phV1+8vv7KbxNeL2m8DHjHTfYfuSRR9rdd9/tjoVoIrgCIoTgCgAAADjwZsyYYfPmzbP+/ftb0aJFY605TzDAihdsBaeMbBN+DK8PzifaJtH6eOsSbRNsD2/jl9XrrnHjxrFXBFFEcAVECMEVAAAAcOARXAFZBwNOAQAAAAAAEEkEVwAAAAAAAIgkgisAAAAAAABEEsEVAAAAAAAAIongCgAAAAAAAJFEcAUAAAAAAIBIIrgCAAAAAABAJBFcAQAAAAAAIJIIrgAAAAAAABBJBFcAAAAAAACIJIIrAAAAAAAARBLBFQAAAAAAACKJ4AoAAAAAAACRRHAFAAAAAACASCK4AgAAAAAAQCQRXAEAAAAAACCSCK4AAEC28Pfff1uPHj3cpPmDZfPmzfbcc8/Zp59+GmuJb39d76JFi6x169b2zTffxFoAAFG1YcMGu/vuu61y5cqWK1cue+aZZ2zJkiU2cuTIg/reFRW//fabPfzww/bHH3/EWna3bds2e+CBB2zgwIGxFuQEBFcAAAD7kf4AefDBB23Tpk2xlgNn8eLF1rt3b/vpp59iLQCAKNOXGkOHDrWuXbva3LlzrUmTJjZ+/HhbuHBhbIucbfbs2fb666/bjh07Yi3/oy+GHn30URs0aFCsBTkFwRUAAMgWChUqZGPGjHGT5qNuX65X38pPmDDBzj//fPchHwCQNSxfvtyqVq1q7du3d6FVpUqVYmuQSEpKiv3www/WrVs369Wrl61bty62BjkFwRUAAEjID2cbMGCAvfXWW9a4cWM3tKFdu3b2+eefuw+P//d//+eGPGhS9/7gUAfNK5jRh3PtV7x4cTv33HPdsfRBVN+e3nTTTVarVq3dhrqp11LDhg3tn//8Z9JDJ/y1+qF3ftlfe9OmTd011KtXz55//nk33EBWr15tLVq0cMM11H7SSSdZ6dKl3QdkXYf3/vvv73GdEmzXfI0aNWzBggXu+nVcHT+e8PWGr0PXqevVdfvXy5s6dap17NjRGjRo4OYPNJ2biWlfJyCr0s+vfg/r/UvvY3q/6969+27vEaJhbvfff797H/C/v/U7Wu83/nd+hw4d3HuEtjnnnHPsyiuvtDvvvNMee+wxK1y4sE2cODHu+5LO26VLFxd8rVy50q655hr3XqV1wfc0+fLLL+3qq69OHY6oc+kca9asces/+eQTt+6+++6z7du3uzY9R72Hq13vZRmh4Y/qCeXft/So9349Z0/PK957YrBdw//0+syaNcvKlCmTOhxQ192zZ0/76KOPXO809VZDzpJr5w8o7yJARLRs2dJGjx7t3jCirGat2vbXn/HHnQPIOp7d+eGvYYMGljt34u+x9KGzT58+9uGHH9ohhxxinTt3tiJFitioUaPch1N9sNS3xc2aNbN3333XHnroIRs+fLhdddVV7kP0XXfdZVOmTHEf8GvXru0+cD/55JP2448/2ksvvWR16tSx7777zoUwCnp89//bb7/dnVO9ipL9neivVXQNEr52Xa8+JL/66qs2bdo0O/vss92H5csvv9z++usv98Fd++TJk8c9Rx1TH5KrVavmPshfe+219sILL1j16tXd8SXYrj8i9IFb9Ut0HD1nTQUKFIht/T/h6924cWPqdeh69RrKuHHjbNmyZfbiiy/a8ccf79pefvllt78CRP0BEu+69pf169fbCSecEFsC9t5///tfy5s3b2wJOLhmzJhh8+bNs/79+1vRokVjrfFpu06dOtkll1zi3jf0e1rvEfp5fvbZZ618+fK2atWq1DDr+uuvtyOOOMKmT5/uwie9p2lYt2oS6ve36iDq/bFKlSruGPo9r9BLYZR+j+t6wu8H+qLIB0tbt261Ro0a2SmnnOLey/Re6d/TvvjiC3ed+kJFx8ifP7/NmTPH/Y2hL2T0PqtzDhs2zD0H/16s9xL1AtP7kno16T0+GQqt+vbt615PPW8FaXpf1LXqOjR0Xp8b9N6r91M96r3SC7b/+uuv7r1s5syZ7jU7+uij7dhjj3X1rvQ+qeDusMMOc9dYoUIF92+HnIHgCoiQrBRcdR4y1QoUTvtNHkB0vfH0g9a7Y5sMBVeTJk1yHyDljTfecGGVvg299dZb3YdgfahWgFKsWDFXv0PfCKvHlD646sOz99VXX9mFF17oPpT6dn1brA+8+vCqc+rDteZ1jmSFgyCJd+2///67C8pOP/1096HXB1d//vmnPfXUU6nbrVixIjVQ0x8YOk56wZXa1fPq4osvdn8QqEdUIomCK/9HTLly5dw6f7ybb755t9fRSxSo7S8Krs5o2tyuHvZyrAXIuIe6NLavFn7pfr6BKMhIcKX3On2BoDBGvaLks88+c72AhgwZ4t5P9HtcIVbw/UZ1mh5//HG3n//yQQHN4MGDd/udrePrPUfH0NBx/74Ufj9Qryz12tL7o9YrXPr555/dvN4vb7vtNvfe884777hi72XLlnX7qVeVvlD5z3/+kxocKShT0Kb3bJ1fvZ917kceecT17kqWepRdd911Ljw766yzXJsiBoVP6k2mkE6BWjCgShRcqT3Rdp5/7yS4ylkYKghgr+XJm4+JiSmLThl16qmn7laHw39w19BB/4eoPvirboc+IOtDq0L4f/3rX3uELfoAXrFiRReIeOedd55ddNFFLgS75ZZbXODlPwDvq/C165tfLeuPBH0A9nRnPg2n8A4//HB3DfPnz7e1a9fGWg88ffOtb5Q99RLTa6b6HgdTvJ8jJqZkJyAr0/uBvrDRlyz+bnfqTfvBBx+4Lyj0HqF5fQl9zDHHuPWiL4YUKCkIeu+992KtyQu/H+h99sQTT3TtvkeUemSpZ5IfKqgvMiZPnpwaWol6ESsk0/B8TXLooYfajTfe6K77iiuusG+//da9B2cktNqyZYt7XhoSqfdazw8X1Guj3l5+OCKwtwiuAABAuvShN96wAbV7Wh9c9vTBVkMD9aFfQwbUe0jD6TQkwNO3vPrGVt9OK/DScID91TMj0bWHachGcDvNq0137Ate64GW7PUCADJHmzZtXK8hDdkrVaqUq9uoXlT6AkQUGqnXsb4UCb8PKghSuLQ37yPx3g8UhoXfq8Ln1JdHCtg+/vhj1+NJPcPUy1ltwcLmCpc0jP7tt992QxmDX94kQ4GUegtrWKT/QssrWLCgC89Un0qfA4B9QXAFAAAOCH2QV7FW1f5QTyz1pNLQCn37XLdu3dhW/7N06VLXq+jf//53pG4LrgAt/EdBRmi4g/6wCE5qAwBkDeqd5OsNqqyHvmzRMDX1KNKwvChR3UgFbQrYVPRc163grG3btrEt/kf1qRYvXuzm586du1uoBUQJwRUAADggNMROdTPuvfde942sllX7Q3cM0of+IH1rrTsxqd6GJs37b7IzS/jbcH1jrZ5i6nWlP1pE2wSHOIp6ZAEAsjd96XDkkUe6Auqvv/66u3OfblzxyiuvuN7CqhWlL2DCw+I0jFA1FIND1g8UDQNUbSsVb1d9RNV01N0Q9T4c7k2l9zjV2VKvrCeeeMI9alntydKXOupppfdBvc8Hbdq0yb1naqi7el+JgrHwe6jCQCA9BFcAAOCA0Le+qs90xhlnpAZV+kCs24B/+umnblnUM0vfYGsogWpzaNK82nzNjsygOhwqKO99//33rrhs/fr13VAP/8Fbf5h4+rZa+6VFNb70vINTuO4XACCa9HtehctvuOGG1PpQol5MmkTvEXqveO2111ytKE+B1uzZs917i+62d6ApFFJgpSGAuhuuwjZRcKYbeQQpeFMxeH1ZpCLqetSy2pOlOxbqBiZvvvmmC748vc/phiY6p2pf6ToU7OnLIN190dPrEr4uIB6CKwAAcECoEKy+adbd8HRLcNW40p2AVMsqeAcnfRusoQxqV30rTfpGW3c20rrMojtM6cO7bg2ub50vu+wyF7z5OzdpuKM+oA8YMMDdfVDbd+3a1d39yf/xIgq4VABeRXz1gTz4hw4AIGvR73MVQ9cQb9WB0u9+TXpvU2HyCy64wAoUKODeK/T+demll7r3CL3n6W652k7vaeqdlYjeE3WHw5dffnm3L0cySsfRefT++cADD7jaVc8884wbOqggydN7s+7+q15Yeq9T3Sxdt8IutWfkhiTNmzd3wxBVm1LBl77MUW9r9a5u3769qwcmCu582QC9z2pSfa2SJUu69Z4Cri+++MK9hy5atCjWipyO4AoAABwQp5xyij355JPuzn26a6DuFKg/AFSY/ZJLLnH1rDSNGDHCrf/HP/4R29PcvD4Ia12wF9SBdMcdd7hz6lEfrFWLS7cx93d00odrfaA/7bTT3LfvuhuTvtVWnRP90eLpFt2dOnVyd1TUHy3Lly+PrQEAZEW6662+YFmyZIkLeDSpF9PUqVPt9NNPd9vovULvGXp/U2ik9xAFL/oiRO8Xad1wxN/VViGSiqnvLb0X9evXzwVlY8aMcYGVAiC9pz399NPumvWe5L9M0hdGfii8Cqmrx/O0adPcevWaSobe13XjFZ1Dz1V3GFTPs2HDhtmQIUPcelGop2GMOp9CLq3T3Qyvvvpqt95TzzW9HrfddpvbXkMOgVw7fyCTH8QK4IDSLXQ1NEa/2KOsZq3a1nnIVCtcfPdvSABkHTPHDbLeHdtYwwYN3DetOZl6TOmbchXZVQiF3WnoyRlNm1v3ETNiLUDGDe1U375a+OV+u1sosK/Ua0q9nPR7P9gLGED00OMKOYr+ONHdNTJ7LLXOGxzvDgAAAAAA0kdwhRyldOnSrtCuvlXPLP6b/N9++y3WAgBIlv/CQTWm0ptUfwQAAOwbvZ/Ge58NT3p/1vs0cKARXAEAgMhSXalJkya5W3qnN7Vr1y62FwAA2Ft6P433Phue9P4cLq4OHAgEVzhgdCtW3WVi7Nixe6TyutOEb9N8UHCdplq1arljiU//g0P9tH2yab//5t7vr3395M/Xo0cPV0hY4j2H4PWI3z/It+l86m2lQsS6E1V4OwBA2lR/Sx+K1WM2valQoUKxvTJG+6o3LvWtAAAw934afo+NN+n9OafXyUTm4KcMB9SqVats/vz5tnHjRjep6LhuLX7WWWe5O1UsXrzYpkyZkhokKZhasWKF21br9ag7NunWqgqTFALpNuQ+FNJ+2v/hhx92vzz3xp133pl6PfrmQHcL0R1CPD0HLWudttEtbXWXqGSCMl2TnpPCL90ulz+KAAAAAABIHsEVDriOHTu61F5To0aNrHv37nbyySe7dQqxypUr5+ZFwZRu3eq/Nff7BPXs2dM96jazumWrgqTq1au7tr0RvB4FTap/pduzBylw8sGYus4qgNO38wAAAPtixhODbcT17W3DX2tiLQAAIIjgCgfUYYcd5sKpjFJPKj80r0OHDrHWXRQgKUgaPHiw6421rzVNKlSokBqUxRN+DtpW+4TDLQAAgGQpqFJgNX3svbEWAAAQD8EVIsXXsFJPKg0j1NC8CRMmxNb+j4bz+UcNJwQAAMgqVi39zoZde579tXqVHVf3rFgrAACIh+AKkaEaVu+++64Lqj7//PPU4X/hnk0qjK7eVo899pgbsjd69OjYmgNDNa5U38rTdaoOV9WqVWMtu/PrASCqtm/dYju2bbNNmza531mbN2+2LVu22Ladbdu3b3dfGgA5ydbNm2zi/TdY97ol3aThe+J7RQ3s0MiFTZo0r221j7bT8pRH7krd96OZL7p906PA6oZRr1iZwyvFWgAAQDy5dn445dMpDggFTL169bIRI0akhlDqUaVwSsXWNeTO33VPQ/9UZ6pPnz5uGJ4vYq7tNVRQdai0jwS30TkuvvhiGzVqlKtNlZ7g+bS9v8ufP58E2/zxVYdL1+KLrY8fP363ZQVpL7zwgnueGuaoOwiqiLyOoT8Kdc2q1aVzp6Vly5YuiFMgF2U1a9W2zkOmWuHi3P4WyIo+mfm8zX7y/thSYrpTkHrB6jE4hdv80O5E6+O1+eXwY3h9ojbNp7dPvGP45+WnZI8RbE9mn2S2CS6nd13hNs2nd8xgW/gxvD7cFmzfsGGDndW8pXUfMcNdZ3ajAGry8H62+pdldtWAsbb+z9U29vYu1qxDL6vb4kL7fsFH9mC3Fm5504Z19sPCj63boCftsErVXHCloX5d7h7rtlVo9eRd3azv2Jl2VM26sTMkFj53kRKlYmuyn6Gd6ttXC7+0vHnzxlqAg2vGjBk2b94893m9aNGisVYAUURwhQMmo8GVgiS/PGvWLLe9AqsLLrjAFWBXMDR58mQXDPnQSMLBUVr2JrjSc9A16FpEdwgMnl+0j+5OKAqsPH9cbR8M4BLV1CK4ApAZ1q5eZW9PGmFd2ja1k2vXdiGFPg7s2LFjtyncFlzWfFrr47UdqH3iLWd0Hwkua8qMfcLr47VlZJ8DoVSpUpYrf6FsG1ypF5WCqpPPbGOtrro5NUySi/rca/kKFEwNqMSHVKL2+XOnpwZZ4WOlh+AKOHgIroCsg+AKSEO88O1AIrgCkFlmjhtkvTu2sYYNGrheNcgegkFWMOAKzsdb9m3x9lEtySu79sj2wdVP3y2MtexyfL2zU8Mkv434kErCwZWGFj5xZzcrXb5iauiVFoIr4OAhuAKyDj6pAgAAZBMKIRUM5MuXz/Lnz28FCxa0woULW5EiRaxYsWJWokQJK1mypOtFpTvmli1b1g2HP/zww90w/COOOMIqVqzovkCpUqWKHXXUUe4xJ2jTrZ899tEfqVOvh19yQZLCpTcnPeqCLU2aV1s8GmaoguuHHFo+3dAKAAAkh+AK2YaG6/m6HPGmFi1auKGCAAAAXqlyR1rVE06177/4yPWY8gXY1ZtK5s/9l82b9pQbIqhwS/Nq8xRmffLmy25+yaLP3XKNOo3dMgAA2HcMFQQihKGCADILQwWRrPXr19sZTZtn26GC4ofsKZSSxm07u6F+a1Yud0MEFWxpecumjW4ooHpVaXigAisNFWzS/iqbcF8ft2+wBlZ6cvpQQT8sVdL7kyQjf7Kkta3W6QvN9LZJVnrbJnOs/XW+ZI+zP65Z9se1SDLbHohrfvPNN+3DDz90N1FSr1TR+vR+PmRvzhe2P44RlBnXLMkcJ9lzSVrb7q9rlrS2UU9kTXweii6CKyBCCK4AZBaCKyQrJwRXeytc4wqJxQuudMfK+fPn29atW1P/qAz+aRJvXo+a4oULwW2CjxJsC+6baJt4j0GJ1gWX422TzHVLeBsv3jZ6TPScvHBbWsvx9pd4+2hK79wSbA9vE2+dHnVcL9l94om3rXz77be2dOlSa9y4sRte7YX/jTI6HxRu98vx9vXPN966YJuElyW9beIdS/OJzutfh2C7hJe98P5BfjnevvG2jXfuePt6ibZLb3/fVr9+fWvXrp0VKFDALSN6CK6ACCG4ApBZCK6QLIKrxAiukhcvuNLP1jXXXGN//fVX6h/PyUhr22SOc6C20bJv06P+zEpvGy887/eNt62E28PrJdE2wW3jtUla28TbVlPw+Qa3Cc/H2yYorW3C7YnWS1rbal6h1c8//2x16tRxNQF9u5fe/kFpbStaDq5L9LPhH4PrwvNZ5Wcj2BbvZyO4rWg50TovuD64Tbz5ROslvI0eW7VqRXAVYQRXQIQQXAHILARXSBbBVWKJgqvvF3xkD3ZrEVva3RHVTsiRQVe84Ep/hii00nDBeH9IesF5SWubtNZ5yWwbfAz+0e1pOdyGrIW7CgJZB59UAQAAgL3Q6qqbrf+Ed/cIoY6qWXe3OxQGp3jb51QKfg455BB3l0tfY0bLmnQHTD8VL158t0l3yNSksMFPqlGkSXfR1FSoUKHUSXfXDE7qVaFJvWw0aZiYnxSsacqTJ4+bFOz7x+BEaAUAmYfgCgAAAAAAAJFEcAUAAAAAAIBIIrgCAAAAAABAJBFcAQAAAAAAIJK4qyD2C/0Ybdu2zf7+++9Yy662RMLrMrKtqE1FMROtiycj28rBOHbnzp1t4MCBdsQRR8RaM3ZOSXTsRDKyvW8/v21ba9v3EStUpLhbzp03nxUpUcryFyzslgFEH3cVRLK4qyD2h3h3FQQOJu4qCGQdBFfYL3Qb459++snmzJnjlvVj5X+0wgGTn4/X5mnZ75fWdpJofXjfsGS2DW/jZXRbTf7uM/G28+tffPFFa9q0qbuDTlii/YL8cZLZVuKtizcfPKYeX3zpJater5nlzVdALVao2CFWve7ZVr7qcW4bANFHcIVkEVxhfyC4QtQQXAFZB8EV9gsFV19//bUNHjw41rKLAg8f2CR6lGBbMu0SbEv0KOltk9624fXBZQm2pbVteJt466dNm2Znn312anCV1rbhZS/ZbdN7FM3HW37o4YetTqtOlr9gIdeer0AhK3/U8Xb40Se4ZQDRR3CFZBFcYX8guELUEFwBWQfBFRAhLVu2tNGjR1vlypVjLdFUs1Zt6zxkqhUuXjLWAiCrIbhCsgiusD8QXCFqCK6ArINPqgAAAAAAAIgkgisAAAAAAABEEsEVsjzdybBHjx42ceLEWEv6/D7vv/9+rAUAAAAAAEQNwRVyHIVWffr0scceeyzWAgAAAAAAooji7MhRvvnmG7v44outXr16tmTJEleMsUGDBrG1Bx/F2QFkFoqzI1m+OHuxUmVjLUDydG9i/bHxyw+LKc6OSKE4O5B1EFwhy/M9qBo1amTt2rVz88WLF7fZs2fbggULrHnz5m4YYenSpe2nn35y+xQqVMguv/xygqu9RHAFZH0EV0jWtm3b7Ndff40tAXuvXLly/L5BZBBcAVkHwRWyvHjBlXpTKawqXLiwW65QoYJ7U/JWr15NcLUPCK6ArI/gCgCQkxFcAVkHn1SRLXXs2NH1sFLPKoVWAAAAAAAg6yG4AgAAAAAAQCQRXAEAAAAAACCSCK4AAAAAAAAQSQRXAAAAAAAAiCSCK2R5KsA+ZswYd5fA4LynO4UE7ygoKtw+c+bMSN1REAAAAAAA7I7gCgAAAAAAAJFEcAUAAAAAAIBIIrgCAAAAAABAJBFcAQAAAAAAIJIIrgAAAAAAyAQbNmywu+++2ypXrmy5cuWyZ555xpYsWWIjR460v//+O7ZVzvXbb7/Zww8/bH/88UesxSwlJcXmz59vl112mbvJVvHixe2iiy5ybVqH7I/gCgAAAACATPDpp5/a0KFDrWvXrjZ37lxr0qSJjR8/3hYuXBjbImebPXu2vf7667Zjx45Yi9m8efOsXbt2bv7ZZ5+1SZMmuXm1aR2yP4IrAAAAAAAywfLly61q1arWvn17F1pVqlQptgbxqIfa008/bc2aNbPHH3/cWrVq5aZx48bZGWec4dZpG2RvBFcAAAAAACSg4WhvvfWWnXvuuW6Ymob5de/e3Q3xC9Iwt/vvv99q1KjhhgE2bdrUpk6datu2bXPDAHv06GEdOnSwBQsWuG3OOeccu/LKK+3OO++0xx57zAoXLmwTJ0601atXW4sWLdwwwueff95OOukkd94uXbq44GvlypV2zTXXuGFzWqdtdA7vyy+/tKuvvjp1OKLOpXOsWbPGrf/kk0/cuvvuu8+2b9/u2vQcNURP7e+//75rS5aCo0cffdTq1avnzqfHMWPG7Db0Uc9Lz0nPLSjYPnDgQPf6zJo1y8qUKeOW9Zr+8ssv1rBhQytSpEhsL3Ovx2mnnebWbdq0KdaK7CrXzh9QBoUCEdGyZUsbPXq0e8OIspq1alvnIVOtcPGSsRYAWc3McYOsd8c21rBBA8udm++xkNjmzZvtiWcmxJaAvdf9qistT548sSXg4JoxY4YbZta/f38rWrRorDU+bdepUye75JJL7Oyzz7a//vrLRo0aZXnz5nVD18qXL2+rVq1KDbOuv/56O+KII2z69OkufLr99tutd+/etmjRInv55Zftueees7vuusuqVKnijqHeQwpoFEZVr17dXc/ll1/uznPIIYfYVVddZevWrUsNlrZu3WqNGjWyU045xaZNm2YTJkxwj7q2L774wl1nrVq13DHy589vc+bMcX9jdOvWzQYNGuTOOWzYMPccXnrpJatTp44Ls9QLrE+fPtarVy8XQCVDoVXfvn3d66nnrSBNwZeuVdfx4IMPusBJAZWGROpRgZsXbP/111/thRdesJkzZ7rX7Oijj7Zjjz02tuXu9N6k8/7888/u9StRokRsDbIjgisgQgiuAGQWgiska/369XZG0+ZWq9klsRYg496bPNq+Wvil+4MZiIKMBFfq+bNs2TIXxqhXlHz22WfWs2dPGzJkiJ1++uk2fPjw1PpLPmxRnSYNb9N+L774oh1//PEuoBk8eLALaBRSiY6/YsUKd4xChQq53kcKnXyoVa5cObedemWp15aCHq1XuKTgRvMaSnfbbbe5MOqdd95xxd7Lli3r9lOvKhWE/89//pMaHCkoU9BWrFgxd/6bbrrJnfuRRx5xvZmSpR5l1113nQvPzjrrLNemiEHhk3qTKaRToBYMqBIFV2pPtF2YnuMVV1zh/v0U7CF7I7gCIoTgCkBmIbhCsnxw1X3EjFgLkHFDO9UnuEKkZCS4euKJJ1y4o+F2bdu2tZIld/8MrJ5RGppXrVo1t12wZ+GPP/5ol156qXXu3NkFRQpkkg2uNOROPbN87yft+8ADD9jkyZPd8D/ZuHGj6+lUsWJF91wS0b4KwfR4+OGHuzb1jNJ1VahQwd3FLxi6JWPLli1266232u+//+4CM4Vgno6nQEnXqeen4Yz7K7hSgftrr73W9TjzPbqQvfFJFQAAAACABNq0aeN6DSmIKVWqlCuqrl5UCptE9aU0lE+F1sPDYdV7ScP9NAwuo3Ss8JA9fdkUbNN8+Jzqm6Lg6OOPP3Y9ntQzTEPv1Kbr9BSMKbh6++233VBGH4YlSz25FJxpWKTvieYVLFjQ9fhSXS0FXPuDnpeuVaGehiQqECO0yhnocYV9pjHWoh8lPyW7LP5Wp+F14fl4y+G2RPN+OXhb1eA6vz68XbA9OAXbJK3j+m0kreeqSd+oaGy779YbXJdoWdI7bnA5OB9u84/x1vl5neuBBx60uudfZfkLFrbKJ9WzMhWquHUAsg56XCFZ9LjC/kCPK0RNRnpciT4L//TTT/bqq6+62lXqraQQSzWsTjjhBBemqDeWelUF+d5TDXa+3+pc6kmUbI8rv48Xb18VQFddKvWa0rbfffed3XDDDe46dX01a9Z0AZW2mzt37m77rl271v75z3+6IY6q4ZXRYYL+3DqPnkMwQPPrRM9LQwr3pceV/gZRry1dr4ZL9uvXj9AqByG4wj5Taq8if8EfJc375fTaw+vDj8H58DcO4W8bwtuEtxfflmj7jBwjzLfv7XE0FlxvUOE3jPBxgseOd1wJt4ePERZve3+e4Lwen3tukh3fuLXlzV/Qjqhey2rUaxrbC0BWQXCFZBFcYX8guELUZDS4Clu6dKkbrnbMMce42lLq1ZTWUEGtVzikQOZABVcqVq7pm2++sREjRrjr8Z/xVR9Ld/7z++ozvYYO6pyqb6VaXTqOhjz6fdKTzFBB9YzSl/Pq+aWSKHpUzzRPdzZUvaq0giv1aNNdCvU66fVQcMXvkpyF4Ar7TL8sVXTQBxz+F128+Xjr/B9M4XXhZT+f6NHPS1rtwXXBR4m3Ll5b8FGS2S64jcRbr1/E+hbhsMMO263dz0uw3T8mWh9uD64LPkpwvQSXw48XXXyJnX/jMCtYtITlzZffSpX/35sPgKyB4ArJIrjC/kBwhahJNrjSXfMUvKjHj0KWAgUKuHbVtVJwpZESaldwk6g4u9brboK609+BDK4Ujmm/cG2sP//8090pUHcc9Pv6uw+qh5j+/lBvK4Vb6tWksClZ6RVnf/LJJ61Vq1aul5oCJ70Op512mttu5cqVLihTMJUouNKx9JrqOer1UQjonxdyDoIr7DP9COkXugR/iWjeL++vx3j8L2vdEla/qNOibx8uvvhiW7BggVseMGDAbm8GBxvF2QFkFoIrJIvgCvsDwRWiJiM9rhTmqAB6u3btrHXr1q7tlVdesdmzZ7uARQHTqlWrXAi0ZMkSt63qPims0VBC1Ze68cYb3c9/vPBJgYwCLl3L6aef7q5nb3tc6VxPPfWU3XzzzS7AUs8wFZdXSKQ6VNq3fPnyLqzSyBmFVYceeqirwdW1a1dXjysjQwb1d6DOq9dTz1uhl4ZRqgaYgjFfPF2vS4cOHSxfvnwu8BNdV5kyZdwdDn1Q5QMuPQ8FYQrytJ/CLQVg+fPnd/t6JUqUcOv3ptccsg4+qWKfKVTSLwpN+qXkJ/1i1C8aTSrOp0nfUGjSLxxN+sWlSb/ENalbrSb9EaVJx04rtMoIfXOhX6b6NkRhm7q06peqfkkCAAAAQDwXXXSRG1an8EU9fjSpF5N6GyloEo2YUPiksEZ3/mvWrJktWrTIBUU+tEpEYZgKo1922WVuKN3e0t9Zqv2kmrkaWqei8grdbrnlFnv66afdNS9fvtyFQ2+88YbrKaXQStRzTIHStGnT3Ppk+7fo7z6FUzqHnmvTpk3ttddes2HDhrnhh1ov+mJ+5MiR7nxdunRx66644grX4yqofv367vXQ8Ett/8knn7i/2T766CN3V0cNTQxO6sG1efPm2N7IruhxhRxN3XIlKr2u6HEFILPQ4wrJoscV9gd6XCFq9rXGFYDMwydVZHnqHqvupOo55efVXVVjyNVbq0WLFq63FQAg+9J7gH7va0j4waJaJm+++ab7pjot/r1Kk+Yzwp/j3HPPdcM4NKyiW7durhcAAABAdkRwhWxJxQbnzJljGzdudL2X1IspTH/cTJkyJbWIIAAA+0J3UNLQB9UMORDUSV5DPlT35Oijj3bvYapNolufa2iKhqQAALCv9GWQL9mS1kQHAWQWgitkSx07dnTfQqu+lgoVhvl6VxdccIEreggAyNoU5nz++eepxWqjTO9Nqj2iSfPJUmFdFdxVQV0V8j3nnHOsffv27k5Oqiupuy5t3749tjUAAHtHRehVDzi9Se87JUtSOgQHHsEVcpxEt5cFAOxO37jq21QFQiqkqqFpuluQev1s2bLFFaXVHYvUrvUq+Orp7j9a74e06ZvZJk2auH21TnRHJq0L3iRDBVZvuukmd1z1JEpWcKigH4qnO8e+9dZbrlCszq9jBs+v9wM9P93xSe16bvGG3qkobLxhiMF2TWeffbbNmjXL3d0orWGL4aGCyV6vgivdLr1x48a71QlSQeBTTz3V3RFK/y4AAOwLfami98P0JoVW1MlEZuCnDDmKD63UI4vQCgDSt3jxYhfkaNj15MmTrWHDhnbDDTe4Xj8KfHT3It3yev78+e5uP7ottoa0qWeQbqutuwPpDkUKsfQBV8dSQVzRHZd0R6FHH300NSiaOXOmjR8/3t1NqFq1aq5tb+mcCoP0O//VV1+1qlWruvO/8847sS12Uc+nhx56yN16Ozj0LiPB2eGHH2733Xef1a1b1+666y53JyS1ZUR611u7dm37+uuvXXAVpKGJulb1utKdeQEAALITgivkGPpGW3+UqKeVwisAQPqWLl1qvXr1cmG/eifdcccdbjieev4o5NGttjt37uxuvf3ll1/aL7/8YmvXrrUPPvjA3ShDv3fVE6lt27au3qCCHdUhFH2jq2OrR5FuIa7wZfDgwe7W2K1atXLb7CuFYgrHdLwRI0a494B///vfsbW7+KDt4osv3m3onQK0ZIfeFStWzE477TQ75JBDXOCmgE9tGZXM9Qbp2l9//XXX+0v75M+fP7YGAAAgeyC4Qo6xbNky+/DDD12PAF9QUNPe3NUJAHKKE0880erUqeN+X0qBAgXcpDYNUfOOPfZYF0Ap6ClRooQ9+eSTdsstt+zWA0ihzlFHHeV+5/pASCFP79697cUXX7ROnTq5bdSba3/cMl/D5ypVqhRbMitSpIhbVugW/L3funVrq1GjRmxpV+8p3bhDvcgUwmWWZK/XU2ilHmrq9aZecGeccUZsDaJu6+ZNNvH+G6x73ZJuGtihka1amnwPPwAAchKCK2R5vsitelEF5z31EtCkHgKq06IP+sEpo8VxASAnUe0KH1oFKZAKtscboqYg66effrK3337bHnnkEbvsssvsueeeszVr1uxWi+m8885zQdEPP/xgffr0sXLlysXW7JvwNSZSpUqV3bbTvNp07aoblVmSvV7ZsWOHK4qrelrq8aaea/sj7EPmmD/3XzZv2lPWd+xMe+yjP6xZh1429vYuhFcAAMRBcAUAAPYrfSmgulYnnHCCHXnkka5nq4qOq9h4vF5BCrK+/fZbFxJpO1+M/GBTEBQvkEuWirOrSLvCKD/tj16+KmA/ZMgQF/LdfffdbjgmX8BkLXVbXOgCq6Nq1nXLZcpXtJ++W2hLFn3ulgEAwP8QXAEAgP1KhdYfeOABu+CCC+yvv/5yBd4VZPXs2XOP22YrpFLtKxk7dqyNGzfOhVeZKdyrSsHbjz/+6HpdHXrooa5N26xfv97Ne+qRldlU/F4F3PWaqR7WtddeS0+r/SA8dG/GE4Nd+4a/1tiI69unDuXTpHltq320nZanPHJX6r4fzXzR7ZsRiz+ZF5sDAABhBFcAAGC/+vnnn+2jjz6y5s2bW/HixWOt5oqvf/LJJ7GlXRRSKay6/vrrXY0r3VHv/vvvd3WdMsucOXNs5cqVsSWz77//3tWO0h0Rdf0FCxZ07SpU7ylA0n5piTdEfV+Gpyvk090KJ06c6O7o2K5du6SHFiIxBVCTh/ez1b8ss2Gzv7cBk/9j8+dOdwFUkRKlrFWXm11vqPemT7A3Jz3q9ml66TWWr8CunwutO6LaCa4HVZe7x9qTd3Wz7xd85NYlQ9tOH3uvO0blY2vFWrO2HTu22/atW2z7tq22Y/s2S9m5vKt9h5v0/wIAAMnKtfONg3cOICJatmzpvkXXbeejrGat2tZ5yFQrXHz3nhMAso6Z4wZZ745trGGDBq6OVTwKSHSXvxdeeMGFMLJ69WpXR1B3u1P9QE93tVPvH22r4u2qvaQ6VjfeeKOVKVPG3RlPx9u4caP7XTd8+HA3RFBB1fHHH28PPvigC3Q0vE5399Md8jQMLtneRMFrrVixohtGJzqPD4o0RC/YrmvRc5k1a5YL2XQ3QxWNHzp0qCvQrrsmqgD9H3/8Yd27d3fDGRWwlS1b1p1PQ/b0emg7vT7qXaZjiO6yqGLr8e4sGL4OSeZ6v/rqK3fXQ53rzDPP3CO00vNWL7f9fWdB9TQ7o2lz6z5iRqwle1EvKtWXOvnMNtbqqptTgyy5qM+9LqBSzyqFS6JwSkP9RO0KuboNetIOq1Rtj2OlR6HVg91auPk23foltU9W8MXbr9iro++KLSUWHEYb/HkOt/vJr/OP8dbFWw7Ohyf9KRSvXZPfzz/GWxevzT/Gm7xE6+LNx1sOtku8dZq8ROsSLQfnw1Nmv2bJnC88H2852CbqDazeteecc477giK43YE6Z3idn7xE6+LNx1sOtku8dZq8eOs0BdcF5+MtB9sl3jpNXqJ1iZaD88HJi7dOk1/nH8NTsD04H1xGdBBcARFCcAUgsxzI4Mr3NLr33ntdz6VSpUq5YEh3D9Tya6+95u46qF5DL730kisyrrsSij6WqAfWXXfdZRMmTHBF25OxL8GVAqYjjjjCtW3atMmFbgqo/DBBWb58uQ0cONCmTJni2jXssXHjxu7OiSNGjHDPWdf+yiuvuLvXarjk7NmzXV2vsL0NrtRbS3cPTEThWnD//SWnBFfqORV0fL2z7aoBY12vK7+N+JBKwsGVhhY+cWc3K12+YmrolUjwvMFzZQerlnyj/5nN/ac/NXZOE+7qYi88P8nVjVNbeJJ48/GWg+0Sb50mL946TcF1wfl4y8E2/xhv8uKt0+TX+cd46+K1+cd4k5doXbz5ZNr8Y7xJf9THa9cU3C84n6gtuBycD0/JnNM/hqdwu+j9TF84qBaj3geD6/02Em73k1/nH8NTuD24HJwPTl68dZr8Ov8YnoLtwfl4y8F2ideW0+lnTl+o7e8vhJBxBFdAhBBcAcgsyQRX2V2iEA67y2k9rsJ8DyzdBVAat+28W0+svelx5QOurz6ck+1Cq0SGdqpvXy38kppsiIwZM2bYvHnz3O//okWLxlohwRBL094GleHlcFtwPjztbVCZXltwPjh54fbatWvn2M9JUcK/AAAAAHKsUuWOtKonnGrff/GRC5QUPqngukIpmT/3Xy600hBBDefTvNo89Zj65M2X3bzuCqjlGnUau+VEFn4wx4VWqmt18Q33ZfvQCkDWotBIYY16SPo77OoxX758rveRSgJoeKV6+GoqXLiwFSlSxE0KATVMXjUiNZUoUcIOOeQQd3MW9cDWVLp0aVdGQJN6MWsIvobmlytXzsqXL++G6/vHChUquF7R6hmnHtWVKlVyk77o16QbqVStWtWOOuooO/roo91UrVo1O+aYY1xv6Bo1arhJPbuPO+44N6lEge58fOKJJ9pJJ51kNWvWTJ10N2CFVSeffLKdcsophFYRwb8C9otwMh1v8gU505tUXyS9SQVqk5m2bt2a1KQ6LMlMqmeSzKShJulNGgISnvT8w+s0lCXZScWC05v0zXky07p16xJO+vfc/PcG27xx/c5p1zIA7E/6/dejRw/34Tm9SUP4gL2lnlPqQaXhfTc0O8ruvOg0F2Q16/BPF2LNnjDC9bI6+cx/WJP2V7keUmrTOlH4VLz0oe6OgirMroDrqJp13bp41IPrv59/4OYVcul8+3JHQgAAsjuGCmK/UNiiIrsKXkSPPqzSY3pTcDt/jHjr4k3pbS8ZbQsfM9zm58NtflsJLic7qUbLueee676Z0LI/hj+efwy2+X3DbX774PqMtgUf1e7n3377HTvyuDqWJ29e137+9fdbgcJ0sQaykqgPFdTvlrVr17ovIdKjb373ZpgHQwWToy8zsvNQwX0RHiqIxBgqiKhhqCCQdRBcYb/4888/3R2g1KMnHn0jnoz0tgt+w+4n/cEVXBbfFl4XnPwfan4++Ojbw+t8e7w2PyXaXsJtwUdNurW6CvmqW21wv3jb+/bwOt/u2zRJcDk4H578MeJtL3q8//4HrP4F3a1AoSJu+fjGrSxf/sQFaAFEDzWukCyCq8QIrpJHcIWoIbgCsg6CK+wXGr63atUq9w25DzrEBx7BEETCbeHt401+m+yM4uwAMgvBFZJFcJVYouDq+wUf2YPdWsSWdqehhTkx6CK4QtQQXAFZB59UsV+oYJ8vnqdHFdbTpEJ7KrinAnwqxKeifJpUoE+9ilS4T28UKuinSUX+NORDRf9U/M8XA+SPKgAAEDW6c2D/Ce/uEUKpxtVjH/0Rd4q3PQAASIw0AAAAAAAAAJHEUEEgQhgqCCCzMFRw/9FHKX8TCz36Scvx2uIthx+DU7hNgsuJ9gm2h7eJty7RNrrD48MjR9np7bpZ7XPaW958Bdw1ABnBUEFEDUMFgayD4AqIEIIrAJll4t1X29n1atpRVau65WBYEQ4wfHt4OdiW1j7hx/D64BS8Fk2J9gm2p3Vczae1PtgW3i+8PjwffDyQFCxq8vUe/XxwObzeT8H9NSXaJ9ge3kbPccEXX1qFY2pa2xsGW6GiJdxxgYwguELUEFwBWQfBFRAhBFcAMsu4my+0Ynl3WIkSJeIGFpoPBxi+PbgsweW09gk/htcHl5PZJt5jcAq2aT68Tbx90ns+4WOG2+Ith4+pKdE+8Y55sFGcHfsDwRWihuAKyDoIrpDlaQhDnz59rFGjRnb55ZfHWuNbvXq122bWrFluecKECenuk5kIrgBkFoYKIlkEV9gfCK4QNQRXQNbBJ1XkGAq4br/9duvYsaMb1rF48WIbPHiwvf/++7EtAAAAAABAlBBcIcsrVKiQjRkzJt2eU+HtKlasaPXq1bMlS5a4ZQAAAAAAEC0EV8jy1JOqR48eNnHixNT5vn37Wq1atVyNkBYtWrghgmHLli2zH3/80erUqRNrAQAAAAAAUUJwhWzpiy++sDlz5tjGjRtdvSjVjfJ8uFWjRg1r2LChVa9ePbYGAAAAAABECcEVsiXVsSpdurQbHlihQoVY6y5+yKBCrRUrVtjAgQNjawAAAAAAQJQQXCHHUoClgEvF2eMNJQQAAAAAAAdXrhTdXg3IwjT0r0+fPtaoUSNr165d6rwvwu57VOlWt2Gqi/Xuu+/a8OHDXZB1sLVs2dINa9TwxiirWau2dR4y1QoXLxlrAZDVzBw3yHp3bGMNGzSw3Ln5HguJrV+/3s5o2tzKVmJoPfbeDws+sK8Wfml58+aNtQAH14wZM2zevHnub4SiRYvGWgFEEcEVsrxkg6ubbrppt3XqZaVH9bry2x5sBFcAMgvBFZK1bds2+/7772NLwN6rVq0av28QGQRXQNZBcIUsLyM9rnxYNWvWLNc2YMCAuD2xDhaCKwCZheAKAJCTEVwBWQefVJHl+WLrCqSC857ejHw4pYLtM2fONOW1mqIUWgEAAAAAgN0RXAEAAAAAACCSCK4AAAAAAAAQSQRXAAAAAAAAiCSCKwAAAAAAAEQSwRX2mS90npFpx44dGZ62b9+e4Um38M7otHXr1gxPW7ZsydC0efPmuJOeZ1rrN23alOFJd13M6LRx48Y0J/0bbt38t23bstlSdl4zAAAAAAAHQq6df4CmxOaBDFM4tGHDBhd2BEMpPx+e4q1La3tNidb7dknvGJqC2weX401a57cLtvl5CS6nt314Cm/vt33uueesRYsWVqJEidR14cnv6/cJzsebwuvS215TcL2E2959912rUONkK1vpGDupSRsrW7Ga2w5A1jFz3CDr3bGNNWzQwHLn5nssAEDOMmPGDJs3b567y3jRokVjrQCiiOAK+0S9jaZMmWL33HNPrOV/cuXKFZtLXlr7aF140h9b8dok0bpk2oJTeH1a22f0+H6dv965c+da3bp1rXjx4ntsqynRsfZXu5/C67Xsr1HL99//gNW/oJsVKnqIlTnyKKtQ7US3HkDWQXAFAMjJCK6ArIPgCvtEPz7qcfXnn38mDDl8mx4z2h6ccoKWLVva6NGjrXLlyrGWaKpZq7Z1HjLVChcvGWsBkNUQXAEAcjKCKyDr4JMq9okCJf2iP+KII6xChQp2+OGHW7ly5dxUtmxZO/TQQ61MmTJWqlQpK1mypJs0DE49iooVK2ZFihSxwoULu6lgwYJWoEABy58/v+XNm9fy5MmzW7AFAAAAAAByFoIrAAAAAAAARBLBFQAAAAAAACKJ4AoAAAAAAACRRHAFAAAAAACASCK4AoCdtm3ZbF99MMfG9utsN5xT1brXLWl3XnSavTDsVvvpu4XuDpoZlbJjhy36z9u24N3XYy3xbfhrjY24vr3NeGJwrOXgWf3LMpv74uO2dfOmWMve02v2+Tsz7P4u57jX89lBvWzz3xtjawEAAAAgfQRXAHK8P3/7xZ78vx72xJ1drUjxktbx9hF246P/spadb7TfVyyxwd3OtbdfGmc7tm+L7ZGcjev+tDcmjrRNG9bHWqLvw9desJ+/XxRb2jfr/1ztXrcyFSpZ70em2pkXdrV8BQrE1gIAAABA+giuAORomzass2mjB9ialT/Z9Y9MtctvHWa1m7S2Y05uaPXOvdiueXCCC7DemPCILf/2y9heSMbGtX/Yuj9+txMbNLdjTzvTjjzmRMudO09sLQAAAACkj+AK+83ff/9tPXr0sFy5ctnAgQNjrdmTnl+i55jWOkTPN5++64YInntlH6tUo1as9X9y58lr9VpealVPOs1Wr1wea901DG7ZNwvc0MLrzzzS+p13kr340O32x6oVbv2qpd/ZsGvPs68+nGNP3tXNBnZo5NqS9dHMF93wQYVlE+7r7YYv6hyvjLnHNqz9w22j4XwT77/BXn3iQVv8yTwb0r2luxZdk67ND2/0QxF1zKBguz/W9LH32rxpT9l1jcvvsX2Qhvy9M+XJ1GGAepw39anUIYbaV0MtNcxSz1/bfL/gI7cuHg1R9M9T0zMDr7MV338dW2u2dNFn7vm//sxw27Fju2vT85vzwhjXrmP75/PBjEn28RtTbcBlDdyxdFwdHwAAAEDWQ3CF/Wb+/Pm2ZMkS+/33361nz57WokULe//992NrgejZtnWLfTv/fatY4yQ76qS6sdY9lShzmF09cJydfGabWMvOn/e3XrGRN1xsxUsdaj0eeNbaXz/QfvnxG3vstivtlyXfWolDy1vbnndZlePrWOurb7FLbx7s2jJi5c7jKHQ5pOzh1nXQE3Z6mw4uLJrz/KOp4Y18NvdfNm3U3XZaiwvt6nuecG1j+na0H774j5tPRp58+axxu87W6PwrrNYZrez6EVPs6Fr1Ymt3p9Bq6sg7bdazD1mdc9pan5Ev2wkNzrGXHx1oL424w63Xvl3uHmtljzzKPX8NvTys0tGxI+xOodPD17e3TRvXW+f/G+OmrVs22agbLnH/PnJk9ZOsyYVX27tTn7Ll33zh2pYt/tzmPDfazr6spwsWvXlTd75Gkx51PeU63DbcVi373h6//Sr7dfn3sS0AAAAAZBUEV9ivKleubIULF44tAdG2ZdNGW7Xsv3ZohcpWoHDRWGv6/vp9lb378jMukLn4hvvdMLiTzzrPut37lAtnPp79kuUvWMiqHH+yFS5WwoU3R9esZwUzcA5RD6+zLupurbrc7M6hx6aX9rQlX823v9f9FdvK3PwF/xxgjdt2thMbNLNOt4+waic3sPemP5t0MXQN4dNQvpJlK1jxUmWtWq3TrXS5I2Nrd/f1h3Pss7dftU79R7rrqXHqGe7aFFR9Ome6/bjwY7dv5WNruddBz19DL4seUjp2hP/R9ek6T27S2q7sP8pdv6Yu/zfGBXEfzHjObaPrq9/qMqtYo6a9NXmsG9o5a/yu59mg9eWup6enjmZX3DnK6pzTzv27XDVgrLuOD19/YbfADwAAAED0EVwhLvWU0h+CmmrVqmXffPNNbI3ZxIkTU9dpaKCGCGr7hg0b2mOPPWZ169a1a6+91mbNmuXatE5D5/r27Zs6lFC9sb799lv36JdXr17tjq9z6Zz+HH7YnR6D2+m44WtLRPuGjyea1zX56wgfL7hfeN26det2ez7+usISnRsHn+76t2P7dite6jDLl3/3ouEa6qbhbcFJQ+k0FE49d3767ivLkyevfff5v+3b+e+5ScPzdJxwsLS3Khx1nFU6trb72RE9lj68kv21epUrfO4dX7+pVTn+lNiSWcEixey4umfZiv9+vXPblbHW/UO91P674EM79tQmVvm4k2Otu66t6ol17OiadW3xx+8kHRBpaOXSRZ9boWIl7IeFH6e+ljpHnrz5dr6mX9ifv+4aflmsZBk757Lr7IcvP7an7r7GhY4trujjnm/QSQ2bW7lK1WJL6jFXzmrUaWzLFi9wNc0AAAAAZB0EV9iDApiRI0fa4sWLXQ2ZUaNG2fDhw1MDqvHjx7vhgBs37urJMWTIEGvQoIG999571rx5c5s7d67bR/Nq0zqZPXu29enTx+2nnlm9evVyIZiOJTNnznTn0Lm0v86ta9AxFBj179/fHWv06NHuGhUCabvq1au7/RPROVasWOHOq0nzavM+/PBDe/jhh935Lrjggt2eq9/Pr5s8eXJsL7PBgwdbx44d3Tpd1+233+72C0rv3IiGtWtW2dYtm2NLuxx6RBVrd+1dbjqv++12VM3/DSVcs2qFrfvjN3t2UC8bes0/dpvUE0uh0oZ1f8a23nu5cue2WGaVpkMOLW/5ChSMLe1SpnxFW7r4c1u3+rdYy/6hsG/Lpr+tZNnDXS+moHz5C1qxkofahrV/2vatW2OtaVNdKtWymjry//Z4LV8d94C7q+OGQAhY5cQ6dvo/Lnfh1tmXXLNbQOUp3PNhn/jA749ff7Z1a/bv6wEAAADgwCK4Qlx//PFHakijUGbMmDFWqFAhe+utt9xy6dKl3bKCGwU8iXobBSn4Ucik/SpUqJB6HA0tVJAlWqdzaZ0o1Fq1apWbF9XO0vnKlCnjtvHbJaIg6d1333XXqWP7a1abD5n8dUnVqlXdo+jY/nlrW4VOQd27d7eTT97V4+Siiy6yH3/80ZYt+18B6GTOjYNLwwPLV6luv61YYps3ro+17lL1hDrWvFNvN51z+XVWoepxsTW7HFHtBBsw+T/22Ed/7DH1e2aulT3ifz9LB4uGJubKkzXu4td37My4r+XDc5e7fwtvy98bXe0vUWH98L9bWtRDLqu8HgAAAAB2IbjCHhQmqVeQAiL1VNCk3k0+vAmGOwdCcGjdgAED7LDDDout2XVtCn/Um0shVnrUy0kF4zVk0R9T82rTurQEhyzWr1/fBVNBCt8URomCtFKlSrl5b1/OjcyRN19+V3tKxcE1zC9ZxUuVcXfLW7Pqp1jLwbVx3Z9uCF/Q778sswpHH+cKy3vqJRakXmHBIYfJUC8w9bRS7yX1vApSQXWdo3jpspY3NPQykQJFiroaWCt++N8dBBNR70bdLXDp1/Ot0x2PuEctqz0o/Dy1fvXPS12vq2KHlIm1AgAAAMgKCK4QlwIiDd3TH3warjdlyhR310CFNT/88ENsq/1PYZGGBvphiiNGjIit2UXrn332WbdOQwbT43tz6Zjax096bnqOaVGPM/XG0vaff/65C50SUc+wNWvWxJZ22ZdzI/McV+9sq9fyYpv+2H225Ov57t8oSEPjFn8yz76Z/16sxezwqsfZsac1sU/nvLJb8XPN6y6A4++93t0hL7Po+tRrzNuw9g/7/J0Zrj5WiVJlLXeevK532epfltm22JBIPc8fv/zEDSfMCB/2Lfr4bfd6eTreDzuP998FH7naVwpqk3FohSquLtYX7860tat/jbWa7di+zV57coi7c+Ofv/3i2jSkcM6k0daoXWc7vdVl7lHLag9Sja3gsX5b8aMt/PBNO+rEU/eohwUAAAAg2giusAeFQ+rRpEdRb6Jjjz3WPZ511lmpQwPVA0v1rvyQv/1FQwN93SuFR36ooM6n+lOdOnWy5557zl2HprSoR1SjRo3cdfrheerRpaLqyQzXUw8zbafXQuFdkJb9a6TrrFKlilWsWNEty76eG5mjQKHC1vrqW+2wikfZ8GvPsyfu7Gr/mfWSq6E0b9pT9kifi1x4ctiRVa1xu86ulpR6FJ3e+nL7ePYUG3dHF1vw7uvuLnvPDLzWvv7wLavb4iI3TM8HRgqRFC4dqDBLvb+evvsa+2DGJHctmlfR88bturieTwprjq5Vz/79r4n22tNDbdF/5tqMJwfbv2c8Z9VPaRQ7yi4FChex7z57312z7moYj8K+2k1a27MDr7M3J412QZGO9+Rd3eyUs9u4OwgmS6+/7hb48/eLbNRNl9onb0y1L9+fbZOG9HV3Dzyt+YWuuLqKqr8xcaSVq3yMndasvev5dVqzC1xvLbUHi65r/6cH9LT5b73ijvdE/65WtERpd5fCZAM1AAAAANFAcIU9qN7TnXfeaTVq1HB/5Cmwat26tWtXSKWhempTjyK56aab3GOQgixtq15KGSlGrnOol5MfXnfSSSdZuXLlXICkwu7Srl07d3wVa9fdC314lMjll1/ueorpenVMhV2DBg1KHeaXiOpWqXC79lNgpqGJPsiSZs2aufa0jrm350bm0t3qrug/0no99JLlL1jYXh49wBUHn/n0cBdS9X5kqnW/7xk78pgT3fb6tzy12QV27dDnXTj15J3dbPygXjvn81iPB8dbtdqnu+0UGNVtcaGtWvqdPXrz5fbzD4td+/7W6Pwr7KyLe9g7U560ZwZc64KeroOesPKVj3Hrdb2Nz7/Szutxh33y5sv2+O1X2Z+//myX3TzYDqt4tNvGc3fk27nfuP5XuwAvHoVN7a4b4Op/ffLGNBt+3fm28P037MLeg6x9r3vc+ow45uQGdu2w5+3wqsfacw/eZOPuuMr1DrtqwFg79Zx2bpsF8153gVuTC7u6fy9RIfgmF15tn7/9qlvve8u17HKT1WrSyl4eM8gVfT+u7pnWsd/DVrxUWbceAAAAQNaRa+cH/d3HxQA4aFq2bOmGQPpi9VFVs1Zt6zxkqhUuXjLWgoNh6+ZNNnl4Pzd/UZ9797izYE6jOxQ+cWc3O+qkutbqqptjrUhk5rhB1rtjG2vYoIHlzs33WACAnGXGjBk2b94892V40aJFY60AoohPqgAAAAAAAIgkgitkaRq2p5pRGgoVb1JNKQAAAAAAkDURXCFLU62oMWPGuNo28SZ1/QUAZE+qodiiRQt3w5CDQV+OpHeTEF2brjEj9R7F7+e/iDmYzxMAAOBgIrgCgCxKNa0uv3WYm3J6fSspUqKU9Xr4Jepb5SC6AcbMmTP3651tkxXvbrPx6Np0jbrWZCmg0va6yYn/IkbzZ599dro3JAEAAMhuCK4AAAAiREGX6G62nuZ1l91PPvkk1gIAAJAzEFwBAIA9qGdPrVq17JVXXtltyJqGx4XrC2pebV54mJvfz9O82oLD7DQf3i49waGC/pq0v9r9efUcgr2UtF7bjR07NuE2upZwmz++prfeestq1KhhCxYssIYNG+7x/IP8a+GHCvpr9ufw1xAcSngwe5IBAABEDcEVAABI6K677rKHH37YDVd777337M4777TChQtbx44dXdvvv/9uS5YssSFDhrjt/TA3v17T4sWL3bA6H87cdNNN1r17dxciaXtNmleb1u0LXZ/ovBs3brR69erZ9ddf787hPfbYYzZ//ny3XtvdfPPNdvHFFyc9DK9+/fruOdWsWdO9Jqq1qJqLyZo1a5aNHz/ePvjgA3f+CRMmWIcOHRLWy1Iodvvtt7t5hV4AgKxrw4YNdvfdd1vlypXdFxfPPPOMex8dOXJkwi9BcpLffvvNfe74448/Yi27fPnll3bFFVdY8eLF3Wt3xx13uG2RMxBcAQCAhBTqVK9e3c2rl1Hz5s1twIABruaSqFeQ5lesWOE+cPthbsGARftfcMEF9u6777ptFPL06dPHVq5caaNHj3aT5tWWkQAoHoVf7dq1c/M6lgI0HVsBm6fnMGjQoNRzaXsFXJMnT3bLB5oCr+Bz1Wula9IfLmEK9BQUKmzTDUfohQUAWdunn35qQ4cOta5du9rcuXOtSZMm7suMhQsXxrbI2WbPnm2vv/667dixI9ZitmjRIvd66TPEpEmTXPCn7dS2atWq2FbIzgiuAABAQvpWMyOCw9z8cEN9o+x7QnkKsxSKqV1TMCDbFxUqVEg3/NJzUhjkaXvtpx5PwZ5ZB4pqVZUpUya2lDaFVb7X2rXXXuuCLABA1rV8+XKrWrWqtW/f3oVWlSpViq1BPFu2bLHHH3/cDjvsMNcrrVWrVq7n1bhx4+zbb7+1t99+O7YlsjOCKwAAsN8o+FEPIoVV6qGlnlYKXtRLK8z3NNJ0IIfAqRZVsMdVvHBLf0Tsi2BI56dg3apk/PDDD7G5PfmgT0Mukx3SCADYP/Q+pvqG5557bupQNfXwDfeU1dC1+++/373/6X2gadOmNnXqVNu2bZvrLaSaiBoarvclbXPOOefYlVde6b7AUc9afami9w7/XqphhM8//7yddNJJ7rxdunRxwZd6El9zzTXuSyKt0zY6h6dhdVdffXXqcESdS+dYs2aNW68bfWjdfffdZ9u3b3dteo4aoqf2REPXE9Hwx0cffdT1Xtb59Khh9MGhj77GY/gLomC7vpzR66Mh9fqCR8s69p9//uley7Jly8b2MitRooSVLFlyt+eN7CvXzh/QlNg8sNf0C0PfBqtLp/+R8vP+MTgF10m4TY8SbgtOB2L7eG3BaW+39/Ppba83xDp16rg3Ld+W1jHC68PLyWwfbEu0fbhNQ4KKHFLGvTFp+erBk61QsUPcdgCyhpnjBlnvjm2sYYMGljv3nt9jKRxR3adRo0alDgvUh0r1qNKyegJ5+mCp3wvDhw93ta70gVcfRIPD2oLb+NBIbb4nloKt4DGToXNoeIUe9XtTw+8USgWPo2tRAXXVotJ1x7sOUbu/bt+76YUXXkjtBaYP3zq+aN9ly5bt8frE418zDVnUY/Ca/euT6HUN0z6DBw/e7boyg77tfuPNObElYO+1aN7M8uTJE1sCDq4ZM2bYvHnz3O/dokWLxlrj03adOnWySy65xM4++2z766+/3O//vHnz2rPPPmvly5d3Q9Z8mKXaikcccYRNnz7dhU+qU9i7d2835O3ll1+25557ztWQrFKlijuGeg8p9FIYpd/vuh69L+g8hxxyiF111VW2bt261GBp69at1qhRIzvllFNs2rRprlaiHnVtX3zxhbtOfZmiY+TPn9/mzJnjhuV369bNDZXXOYcNG+aew0svveT+/lCYpV5geq/r1auX+5yfDAVLffv2da+nnreCNL2f6lp1HQ8++KAVKVIk7vufBNt//fVX9x6nntt6zY4++mg79thjY1vuor89fv75Z3vooYdcCQLtW61atdhaZFcEV9gvlNT7bxb0B5B/lHCbHoNTetvHa9NjcEpmewm3ZXT7eG16lHBbou2DU3jdiy++6L5x0BtUWtvHa/OPyZ7Tz+/N9r2u723nXH2HFSxczHLlzmXlqhxrhYuXdOsAZA0HIri69957rV+/fq4tGAz5/fRh27f7QEkfttUeDJeSFfywm5HgygdU/oOzD6X8vlofDq7Cz+FABlfJhGvBD/0H2vr16+2Mps3t6DpnxVqAjPv8zZfsq4Vfuj+YgSjISHCl37/6va8wxg81/+yzz6xnz57uC5vTTz/d/c5WiKUaTD5s0Re/Guam/fQ5//jjj3e/w8NfQoR/7/v3BR9qaYi5qFeWem3pfUTr9flcIY7mmzVrZrfddpt7X3rnnXfcsDrfQ0l/q6ku1H/+85/U9xAFZQraihUr5s6vm6Po3I888ojr3ZUs9Si77rrr3Pv5WWftep9QxKDwSb3JFNIpUIv3/ifh9kTbiX9d1CNLr6VeG/XuQvZHcAVESMuWLd23IfrDKMpq1qptnYdMJawCsrAD2eNKw9nCH8jVs0ofkLWN7uan4wSDLG2T0VAm+OE2I8GVriXYw0ttwWuO9zwTPQcfSCXij5WR4Mq/9hoa6I+t7TV8Qn8YpHW+A8EHV91HzIi1ABk3tFN9gitESkaCqyeeeCL1faBt27ZuiFqQekZpaJ56/mi7YM/CH3/80S699FLr3Lmzew/R7/NkgyuFMuqZpYBKtO8DDzzgbiaiTgOi9yP1dKpYseJu739h2ldBjx4PP/xw16b3SF2X3jt1F79g6JYM9ci99dZb3XB8fV5QCObpeOoppuvU89Nwxv0RXH3++ee2du1aFxIqPFSPtjPOOCO2BbKrPT+pAgAA7CV9aFZdK98LV5PqRylw+fDDD10hVXX/D99FUN9aiz6o64PpgaQ/HDTkwl+fPrhrGIX/A0IflPXtuMKs4HMI1unSNgqaFCbFq9mxL3Qduh59cPfn1x85GsKY2aEVAMCsTZs2rteQgphSpUq5oup6n1DYJCqbovcVFVoPD4dV7yWNptAwuIzSsfQeEORHQ3iaD59TfVMUHH388ceux5PeY/XeqzZdp6dgTMGVCpxrKKMPw5KlnlwKzjQs0vdE8woWLOh6fKmulgKu/UHvvfp3UHjoAyv9O+h5IXsjuAIAAHtQeKJvNRXOePrAqK7/4W90tawirD6E0rI+NPtJYYsmHa9mzZpuW837oEj8sf0dCZOhY/rtdW4dN3xtun5dQ/B5iIZM+OuLd07//IPPIdHzTOua/fPygVPwmj2/TfDafZs/f/j1AgBknkMPPdT1VtJwQY2O0PuAfmfrvUXD8qLku+++c0GbAjZ9saLrVnCmsCdM9an0pYjMnTt3t1Ar6hQIKsTSjU32JhRE1kJwBQAAAABAGtSz6cgjj3QF1F9//XV3574TTjjBXnnlFVfLSsPkli5dmnqXPk/D2nRXPPXGOtA2b97salupeLuGnWsIn27+pBqU4d5U+lJEwxXVK0tDIfWoZbUnSz291NPqp59+cj2vgjZt2uQCJdXnUu8rUTCm4edBCgPTomBKd19ULa0w1ajU8ONwjzNkPwRXAAAgMvRBW3dC0h8IaU2qlwEAwIGmXkkqXH7DDTe4YMhTLyZNot4/9evXt9dee80NifcUaM2ePdsNj9fd9g40hUJ6H9UQQNXb0vulKDjTsPggBW+qqaXh8yqi7ms4qj1ZumOh6ki++eabLvjyFH6pPIDOeeqpp7rrULCnel+6+6Kn1yV8XWHqgazXWQGhQkBPx1GAeOKJJ7q7OiJ7I7gCAACRER6il2gKDwlMVni4HwAAaSlSpIjVqVPHFQtXHSgVddekG2joxh+q61igQAE3FFw3HVEh9qeeesreeOMNVzRd26mXlnpnJaLi8CoU//LLL7teW3tLx9F5dGdAFXFX7SrVgtLQQQVJngKgoUOHul5Yl112maubpetW2KX2YECUnubNm7thiF26dHHBl2o06ssl1YBs3769qwcmCu5UL/KWW26xl156yU2qrxUudK+A64svvnDF3BctWmQlSpRwdy3UkEzdUVGvvfa94oorXPDVt29f92+E7I3gCgAAAACABC666CJXK2rJkiUu4NGkXkwavnb66ae7bQ477DB7/PHH7ZJLLnGhUbNmzVzwouF3N954Y5p31GzdunVqiKRi6ntLAVq/fv1cUKYvaRRYKQBSWPT000+7a16+fLlNnz7dBWsKhFS/S1RI/dprr7Vp06a59fqSKBkKjR588EF3Dj3Xpk2bup5nw4YNc3ca9qGSQj0NY9T5FHJpncIn3Y0xSD3X9HrcdtttbnsNOWzcuLF7rVUEX6+9esAdd9xx7rll5C6IyLpy7fyBTH4QK4ADqmXLlq7go36xR1nNWrWt85CpVrj47t+QAMg6Zo4bZL07trGGDRq4b1qBRDT05Iymza37iBmxFiDjhnaqb18t/DLNP96BzKSeO+rlpJ646qkEILr4pAoAAAAAAIBIIrgCAAAAAACO6nkFb4iSaGrRooWtXr06thdw4BBcAQAAAAAAp127dvb777+nO02aNGmP4urAgUBwBQAAAAAAHN15t3Tp0ulOCq2ok4nMwE8ZAAAAAAAAIongCgAAAAAAAJFEcAUAAABkshlPDLbudUu6acT17W3DX2tiawAAQBDBFQAAAJCJvl/wkU0fe691uXusDZv9vWt7+dF7bOvmTW4eAAD8T66UnWLzAA6yli1b2ujRo61y5cqxlmiqWau2dR4y1QoX5y4iQFY1c9wg692xjTVs0MAVVv3oo4/s1VdfdfOadJtrP69JgsuaMrqNv312WuvDbeFlzYfX+/Z4j+H1wflE28TbNrwcb9vsav369XZG0+bWfcSMWAv2J4VVk4f3s9W/LLOrBoy1IiVKxdZkL0M71bevFn5pefPmjbUAB9eMGTNs3rx51r9/fytatGisFUAUEVwBEUJwBSCzhIOr8ePH26JFi2zHjh2pkz4iBB/D8345rfW+Lb1tJLgc3iZ8DN8WXE7rGJnBB1gKs4KBVnA+uJzeNon281PwnJrC6zWlt014vabwNtu2bbPpr86wG55+322fHfnwaN60p9xym279rNVVN7vhe0/c2c3+Wr3Kug160q0be3sXq3rCqXZRn3tt9oRHbP7c6XZc3bN2zo9w69WLqm6LC918Mvw5jjqprjtndkVwhaghuAKyDoIrIEIIrgBklnBwld35ECscdmk5XltwWYLLmoLbJHOM9LaJt963B+fT2ib8GF4fnE+0Tbz1mzdvthkzZ1uvx+e61yK7Cfd4Wv/nahdONevQywVQGtb3YLcWbnnThnX2w8KPXYh1WKVqrk6VH/KnbT+a+aI9eVc36zt2ph1Vs27sDImtWvqdO9fJZ7bJ1qGVEFwhagiugKyD4AqIEIIrAJklpwVX2HvZfahgODzyQZaoV1W+AgVTAyoJ9qhSu3pc+SBrb4Oo8HGyum1bt9jX779uO7Zvdz34ZNYT99qge+6xPHnypP7O0brwJFofXPbzyeznH31beLtEkySzv/j1wTY9+v2D68KTBPeX4PpEk2T0+pA2gisg6yC4AiKE4ApAZiG4QrJySnD103cLYy27HF/v7NSaU34bCYZL4cDJD/srXb5iauiVDN+rK6PDDKNKPdPmTR5t27Zs3tWw88+NL96Zbhe0a+d+3/g/P/QY/lPEtyl4Ca4PbpeoLbgs4TY/n6hNkz9vvLZge3rX54Oj8KNoPtFyokcJtqW3XXAKtvnf98H1fhK/Pq3t/CTazs/rMZn9Jbidb0u0XaJ2Ca8LThLc3y+Llj///HNbvHixXXDBBVaoUKGE+/m24HJak/j9Jbw+0RTeNpnn6KfgdhnZz0/B7dPaX/z6eM8ROFAIroAIIbgCkFkIrpCsnNbjKixc/6px28679cTaHz2ufHCV7BDDqNu+bav9tuy/tmPHdqU4rm3i3VfbcxMnuB5XicIe/xhen96jaD697cKPovn9tV34UUNtRcvhSfz68HaJ2oOTpLe/F9xH/Hy4LbgswbbwtsFHyUhbcFmSafPzido0KTgJt3nBdm/58uW2cuVKq1mzpvu5jLe/bwu2x2vzErUFlyXc5ucz0qYpeC2al4w8+nlJa7tEj35e/LJvSyvgCm8Xrz3cFm+S4P4SXK91rVq1sipVqqReD7ImgisgQgiuAGQWgiskK7sHV4lqXPnwydetUm+o31cs2a2mlR9C6Iu5J1vjKrhdxRo1dzs/dxXMPvyfWfvjMdwm8bbzj+HtwsuJHhNtl6jdP4bbJN52/jG8XXg5/Bhuk3jrJV57+FH+/e9/u15XV1xxhRUsuKt3ZLztNJ9se3rbSXA50aME29Lbzi8nCjGD6+NtH94v3iR+fwmu8/tLcL0XbNOkUMnP+/Z4bV5G2oLLcumllxJcZQMEV0CEEFwByCwEV0hWdg+uJFGvqjUrl7sQy99FcMumjbvdZfCTN192Pa6atL/KJtzXx+2b7HA/H3pJcFhidkVxdkRNdqxx5f+0Dz4G/9yPt5zoMdF26bWHHyXedpLWcrjdP4bXh7cLLx9++OFuKCiyNoIrIEIIrgBkFoIrJCsnBFd7K7sVVT+QCK4QNRRnB7IOPqkCAAAAAAAgkgiuAAAAgP1Ixda71y0ZdxrYoZEr4g4AAJJDcAUAAADsBRVk7z/h3T2GCaow+2Mf/RF3irc9AABIjOAKAAAAAAAAkURwBQAAAAAAgEgiuAIAAAAAAEAkEVwBAAAAAAAgkgiuAAAAAAAAEEkEVwAAAAAAAIgkgisAAAAAAABEEsEVAAAAAAAAIongCgAAAAAAAJFEcAUAAAAAAIBIIrgCAAAAAABAJOVK2Sk2D+Aga9mypY0ePdoqV64ca4mmmrVqW+chU61w8ZKxFgBZzcxxg6x3xzbWsEEDy52b77GQ2Pr16+2Mps2t5TUDYy1Axk2+71r7auGXljdv3lgLcHDNmDHD5s2bZ/3797eiRYvGWgFEEcEVECEEVwAyC8EVkrVx40a78JIOsSVg702f9qLlyZMntgQcXARXQNZBcAVECMEVgMxCcAUAyMkIroCsg0+qAAAAAAAAiCSCKwAAAAAAAEQSwRUAAAAAAAAiieAKAAAAAAAAkURwBQAAAAAAgEgiuAIAAAAAAEAkEVwBAAAAAAAgkgiuAAAAAAAAEEkEVwAAAAAAAIgkgisAAAAAAABEEsEVAAAAAAAAIongCgAA7JNvvvnG+vbta3///XesZe/pGDqWjgkAAAAQXAEAgH0yefJkW7t2bWxp38yfP99mz54dWwIAAEBOR3AFAAAAAACASCK4AgAAaXr//fctV65cqVOtWrXcUD4N6+vRo4fdeeed9thjj1nhwoXdtrJ69Wpr0aLFbvsNHDjQrRO/fuzYse54Wn/hhRdaw4YNbcGCBVajRo3dtk9G+Dp1bX74oq5X5wm2+ev3z2fixInuml555ZXdjuOfEwAAADIfwRUAAEhIoY3CpPfee89SUlLcdPPNN9v1119vGzdutDFjxtiAAQOse/fubrlBgwYulLr88sutY8eOqfssXrzYpkyZ4sKhoNGjR9sLL7zgtnnxxRfdeWrWrOm279+/f2yr9Om4wevUtUifPn1cQFW9enUbNWqUC9imTp3q1ulRy2rXepk1a5Y9+uij9vvvv7vj6Hg6LuEVAADAwUFwBQAAElqyZIk1b97c9YDyFErNnDnTSpcuHWvZndaJei95CoYuuOACe/fdd1N7PInafGi0txSUjR8/3gVoCs6kUKFCLrT68MMPU4MqrdM2gwcPdr2q9BjcRxSaPfzww6nPze+j4wevGwAAAJmD4AoAACRUp04dW7lypZUpU2aP3lKJBIMtP0RPQ+40pDCsatWqsbm9p95Z6il11llnxVp2qVixotWrV89++OGHWItZz549rVy5cnb++ee7Ry0HqU3PNUjXqABs2bJlsRYAAABkFoIrAACQkHpDffDBB24oYIcOHVLrPqUVYgXrW6mnlnpVadidei4dSBrS569Pk2puaShgkMI0DWEUPYZ7jVWuXNntF6Q2AAAAHBwEVwAAIE0adqdaVgqffAClECtReKW6VeLrRGWkVtXe8nWx/DUGp+D51QNMQwRFj1oO0tBIXx/LUxsAAAAODoIrAACQIRpep7pXwSF4nupArVixYo+eS+qFdaAKnKtXl4b4ffLJJ7GWXXzPLx+w6dqGDx/utl2+fLkbRqjlYO0qDYtU4Bak56ltNfQQAAAAmYvgCgAAJKTQRzWqgj2TwjWlVAPK91RS76wKFSrsURNKvbC0T3p8falweJQWP/xPvcCC4Zjv+eWLxPu7CKoH1hFHHLFH8XZZsGDBbmGWnr9qc+n4em4AAADIXARXAAAgIRVav/nmm12vJl87SrWk3nvvvdS78YULuCsYUl2r4D4KtyZMmJBukXNfUF3n6NGjR9J38tN16pqCda7U82vatGku2FKgpWAreBdB1e/ScwsOe1RPMrWrt5iOoeGECuqCdx4EAABA5smVouIPACKhZcuWrodA1AsB16xV2zoPmWqFi5eMtQDIamaOG2S9O7axhg0aWO7cfI8lCq/Gjx/vHsNF2wEA2cuMGTNs3rx57suWokWLxloBRBGfVAEAAAAAABBJBFcAACCSNLzPD/tLa/LD/AAAAJD9EFwBAIBIUl0pVTRIb1J9q/1Bx5k5cybDBAEAACKE4AoAAAAAAACRRHAFAAAAAACASCK4AgAAAAAAQCQRXAEAAAAAACCSCK4AAAAAAAAQSQRXAAAAAAAAiCSCKwAAAAAAAEQSwRUAAAAAAAAiKVfKTrF5AAdZy5YtbfTo0Va5cuVYSzTVrFXbOg+ZaoWLl4y1AIiyL+e9an/+usJy58ptuXLvnHY+fvvxW9aozglWtUoVy5Mnz862XJZ757rgFG4LL0twOaPH0Hxa6xO1hffLyDEAAJAZM2bYvHnzrH///la0aNFYK4AoIrgCIoTgCsCB8Pygnqa3+5SUHZayY+e0c/6PlUut/KGlrNjOD+s7drZpUrufT7QcbAuvj9cWXpbgfGbzQVZwXlNGwq/wY3h9omXfFmzP6DHC+/u2ZJf9fHiba665xr0mAJBTEFwBWQfBFRAhBFcAMsvMcYOsd8c21rBBAxdcHAwKrzISfoUfw+vTatNysC2jxwjvH14fbznYFn4Mr0+0rMm/Vn7K6DG0nNY2devWtd69e7vzAEBOQXAFZB0EV0CEEFwByCxRCK4AADhYCK6ArINPqgAAAAAAAIgkgisAAAAAAABEEsEVAAAAAAAAIongCgAAAAAAAJFEcAUAAAAAAIBIIrgCAAAAAABAJBFcAQAAAAAAIJIIrgAAAAAAABBJBFcAAAAAAACIJIIrAAAAAAAARBLBFQAAAAAAACKJ4AoAAAAAAACRRHAFAAAAAACASCK4AgAAAAAAQCQRXAEAAAAAACCSCK4AAAAAAAAQSQRXAAAAAAAAiCSCKwAAAAAAAEQSwRUAAAAAAAAiieAKAAAAAAAAkURwBQAAAAAAgEgiuAIAAAAAAEAkEVwBAAAAAAAgknKl7BSbB3CQtWzZ0kaPHm2VK1eOtURTzVq1rUmnvrElAFnR8sXzrXfHNtawQQPLnZvvsQAAOcuMGTNs3rx51r9/fytatGisFUAUEVwBEZJVgqvb/+8e27ptW2wJQJa08+3/yssvtho1ahBcAQByHIIrIOsguAIiJKsEVwAAAEBWRnAFZB18xQoAAAAAAIBIIrgCAAAAAABAJBFcAQAAAAAAIJIIrgAAAAAAABBJBFcAAAAAAACIJIIrAAAAAAAARBLBFQAAAAAAACKJ4AoAAAAAAACRRHAFAAAAAACASCK4AgAAAAAAQCQRXAEAAAAAACCSCK4AAAAAAAAQSQRXAAAAAAAAiCSCKwAAAAAAAEQSwRUAAAAAAAAiieAKAAAAAAAAkURwBQAAAAAAgEgiuAIAAAAAAEAkEVwBAAAAAAAgkgiuAAAAAAAAEEkEVwAAAAAAAIgkgisAAAAAAABEEsEVAAAAAAAAIongCgAAAAAAAJFEcAUAAAAAAIBIIrgCAAAAAABAJBFcAQAAAAAAIJIIrgAAAAAAABBJBFcAAAAAAACIJIIrAAAAAAAARBLBFQAAAAAAACKJ4AoAAAAAAACRRHAFAAAAAACASCK4AgAAAAAAQCQRXAEAAAAAACCSCK4AAAAAAAAQSQRXAAAAAAAAiCSCKwAAAAAAAEQSwRUAAAAAAAAiieAKAAAAAAAAkURwBQAAAAAAgEgiuAIAAAAAAEAkEVwBAAAAAAAgkgiuAAAAAAAAEEkEVwAAAAAAAIgkgisAAAAAAABEEsEVAAAAAAAAIongCgAAAAAAAJFEcAUAAAAAAIBIIrgCAAAAAABAJBFcAQAAAAAAIJIIrgAAAAAAABBJBFcAAAAAAACIJIIrAAAAAAAARBLBFQAAAAAAACKJ4AoAAAAAAACRRHAFAAAAAACASCK4AgAAAAAAQCQRXAEAAAAAACCSCK4AAAAAAAAQSQRXAAAAAAAAiCSCKwAAAAAAAEQSwRUAAAAAAAAiieAKAAAAAAAAkURwBQAAAAAAgEgiuAIAAAAAAEAkEVwBAAAAAAAgkgiuAAAAAAAAEEkEVwAAAAAAAIgkgisAAAAAAABEEsEVAAAAAAAAIongCgAAAAAAAJFEcAUAAAAAAIBIIrgCAAAAAABAJBFcAQAAAAAAIJIIrgAAAAAAABBJBFcAAAAAAACIJIIrAAAAAAAARBLBFQAAAAAAACKJ4AoAAAAAAACRRHAFAAAAAACASCK4AgAAAAAAQCQRXAEAAAAAACCSCK4AAAAAAAAQSQRXAAAAAAAAiCSCKwAAAAAAAEQSwRUAAAAAAAAiieAKAAAAAAAAkURwBQAAAAAAgEgiuAIAAAAAAEAkEVwBAAAAAAAgkgiuAAAAAAAAEEkEVwAAAAAAAIgkgisAAAAAAABEEsEVAAAAAAAAIongCgAAAAAAAJFEcAUAAAAAAIBIIrgCAAAAAABAJBFcAQAAAAAAIJIIrgAAAAAAABBJBFcAAAAAAACIJIIrAAAAAAAARBLBFQAAAAAAACKJ4AoAAAAAAACRRHAFAAAAAACASCK4AgAAAAAAQCQRXAEAAAAAACCSCK4AAAAAAAAQSQRXAAAAAAAAiCSCKwAAAAAAAERSrpSdYvMADrKWLVvaRRddFFsCAAAAcKAsWrTI+vfvb0WLFo21AIgigisgQl544QVbs2ZNbAkAAADAgVKxYkVr2rSpFShQINYCIIoIroAI2b59u/G/JAAAAHDg5cqVy025c1NBB4gygisAAAAAAABEEtEyAAAAAAAAIongCgAAAAAAAJFEcAUAAAAAAIBIIrgCAAAAAABAJBFcAQAAAAAAIJIIrgAAAAAAABBJBFcAAAAAAACIJIIrAAAAAAAARBLBFQAAAAAAACKJ4AoAAAAAAACRRHAFAAAAAACASCK4AgAAAAAAQCQRXAEAAAAAACCSCK4AAAAAAAAQSQRXAAAAAAAAiCSCKwAAAAAAAEQSwRUAAAAAAAAiieAKAAAAAAAAkURwBQAAAAAAgEgiuAIAAAAAAEAkEVwBAAAAAAAgkgiuAAAAAAAAEEkEVwAAAAAAAIgkgisAAAAAAABEEsEVAAAAAAAAIongCgAAAAAAAJFEcAUAAAAAAIBIIrgCAAAAAABAJBFcAQAAAAAAIJIIrgAAAAAAABBJBFcAAAAAAACIJIIrAAAAAAAARBLBFQAAAAAAACKJ4AoAAAAAAACRRHAFAAAAAACASCK4AgAAAAAAQCQRXAEAAAAAACCSCK4AAAAAAAAQSQRXAAAAAAAAiCSCKwAAAAAAAEQSwRUAAAAAAAAiieAKAAAAAAAAkURwBQAAAAAAgEgiuAIAAAAAAEAkEVwBAAAAAAAggsz+H0CDtpHXJjvtAAAAAElFTkSuQmCC;" vertex="1" parent="1">
          <mxGeometry x="74.00335367838574" y="397.00002034505223" width="1198" height="621" as="geometry" />
        </mxCell>
      </root>
    </mxGraphModel>
  </diagram>
</mxfile>
